<svg width="1117" height="336" viewBox="0 0 1117 336" fill="none" xmlns="http://www.w3.org/2000/svg">
<g clip-path="url(#clip0_608_92)">
<path d="M268.508 237.121C270.218 234.951 276.558 236.891 275.308 240.831C271.638 252.281 261.418 265.281 248.628 264.151C221.148 261.711 233.358 197.661 239.948 182.751C241.018 180.331 258.898 180.381 255.858 191.711C253.648 200.191 238.058 252.021 253.178 253.851C260.388 254.731 265.498 240.951 268.508 237.141V237.121Z" fill="#303030"/>
<path d="M281.698 249.001C280.298 252.401 286.728 265.701 294.478 266.731C307.488 268.461 315.578 243.001 320.488 237.921C323.268 235.051 328.268 239.261 327.548 241.831C323.268 256.971 307.668 278.291 289.798 275.641C269.328 272.611 262.398 247.661 263.708 229.951C265.248 209.041 272.318 169.051 301.008 168.641C313.428 168.461 318.158 180.621 316.578 190.941C313.038 214.061 286.128 238.241 281.698 248.991V249.001ZM280.868 238.571C282.118 239.041 299.408 205.981 301.458 187.741C302.018 182.761 300.518 179.861 298.728 180.181C285.898 182.481 282.188 219.711 281.118 232.411C280.928 234.661 280.868 238.571 280.868 238.571Z" fill="#303030"/>
<path d="M199.699 216.239C192.679 233.289 184.369 260.529 176.399 284.359C166.099 289.149 161.729 285.899 161.529 280.439C161.179 266.089 164.019 227.389 166.759 198.369L173.869 194.479C180.589 190.829 185.919 192.979 185.299 198.099C183.279 214.089 177.769 238.909 176.099 259.129C186.399 227.589 192.689 212.229 201.259 193.609C204.069 187.479 212.249 185.719 220.239 194.319C210.649 250.109 216.029 264.819 221.669 264.519C226.859 264.239 230.609 260.869 235.709 246.619C238.639 244.119 243.719 245.079 242.849 248.809C239.709 261.659 229.659 273.519 217.799 274.599C202.149 276.019 195.789 252.079 199.679 216.259L199.699 216.239Z" fill="#303030"/>
<path d="M106.389 209.949C104.829 206.649 101.069 205.019 97.599 206.139C93.769 207.369 90.029 208.879 86.419 210.649C77.359 215.169 69.329 221.759 62.549 229.369C56.409 236.169 51.309 243.829 47.409 252.119C46.349 254.389 48.139 257.039 50.569 256.799C52.379 256.629 53.119 255.059 54.029 253.689C55.169 251.979 56.369 250.309 57.669 248.699C60.749 244.789 64.139 241.129 67.819 237.769C74.589 231.579 82.519 226.299 91.139 223.299C86.499 277.759 74.029 310.559 64.249 312.329C54.329 314.119 37.469 298.029 30.089 251.819C17.299 171.889 40.099 132.179 64.759 127.719C78.929 125.159 88.179 144.719 77.329 184.349C76.389 187.509 78.579 193.999 89.069 192.099C110.329 188.259 121.059 102.279 68.349 111.809C14.439 121.559 -7.39095 209.239 2.18905 269.119C10.699 322.309 38.469 337.329 50.949 335.079C67.389 332.099 85.259 318.109 97.279 272.869C103.449 253.509 107.079 214.009 107.079 214.009C107.229 212.619 106.989 211.219 106.389 209.949Z" fill="#303030"/>
<path d="M166.769 263.049H162.029C160.739 291.129 142.009 289.609 135.229 287.709C128.449 285.809 123.079 278.449 124.339 275.449C128.459 265.459 154.169 242.989 157.449 221.499C158.919 211.909 153.829 200.609 142.289 200.769C115.609 201.149 109.059 238.319 107.619 257.749C106.429 273.849 112.589 292.379 130.679 295.979C130.679 295.979 147.919 299.969 158.249 289.689C158.249 289.689 168.609 280.289 166.779 263.059L166.769 263.049ZM123.569 265.769C123.569 265.769 123.629 262.119 123.799 260.039C124.799 248.239 128.249 213.639 140.179 211.509C141.859 211.209 143.919 213.899 143.409 218.529C141.489 235.489 124.729 266.189 123.569 265.769Z" fill="#303030"/>
<path d="M283.428 58.5002C275.198 56.1602 237.308 48.3102 225.978 88.4502C214.648 128.59 251.168 139.24 244.228 164.05C244.228 164.05 240.898 172.59 249.958 175.03C259.028 177.47 260.568 168.74 260.568 168.74C267.618 143.96 305.028 154.3 316.508 114.22C327.988 74.1402 291.648 60.8402 283.428 58.5002ZM289.218 138.66L287.728 138.22C283.068 136.84 279.308 133.15 277.008 127.75C273.548 130.09 269.918 131.33 266.448 131.32C265.048 131.32 263.668 131.12 262.328 130.72C257.668 129.35 253.908 125.65 251.608 120.24C248.138 122.58 244.518 123.82 241.028 123.82C239.638 123.82 238.258 123.61 236.928 123.22L235.438 122.78L237.308 116.41L238.798 116.85C239.518 117.06 240.258 117.16 240.998 117.17C244.348 117.17 247.478 115.22 249.638 113.43C248.758 108.28 248.978 102.76 250.248 98.4902C251.758 93.3702 254.698 90.4402 258.328 90.4402C258.998 90.4402 259.668 90.5402 260.318 90.7402C264.738 92.0502 266.368 96.6402 264.568 102.73C263.308 107.01 260.478 111.77 256.968 115.59C258.368 120.31 260.938 123.42 264.198 124.38C264.928 124.6 265.688 124.71 266.448 124.71C269.778 124.71 272.878 122.75 275.038 120.97C273.548 112.34 275.178 103.6 278.998 99.9802C280.268 98.7202 281.978 98.0002 283.768 97.9902C284.428 97.9902 285.088 98.0902 285.718 98.2802C288.108 98.9702 289.928 100.92 290.438 103.36C291.668 108.48 288.288 116.7 282.358 123.13C283.298 126.13 285.358 130.67 289.598 131.92L291.088 132.36L289.218 138.69V138.66ZM285.108 104.58C285.058 104.05 284.688 103.61 284.168 103.48C284.058 103.45 283.948 103.43 283.838 103.42H283.758C283.378 103.44 283.028 103.61 282.778 103.89C280.978 105.59 279.558 110.98 280.088 117.27C283.958 112.29 285.678 106.99 285.098 104.59L285.108 104.58ZM258.768 95.9702C258.678 95.9402 258.588 95.9302 258.498 95.9202H258.418C257.158 95.9202 256.078 98.0402 255.508 100.01C254.728 102.65 254.448 106.22 254.728 109.73C256.758 107.16 258.318 104.25 259.308 101.13C259.528 100.36 260.568 96.5002 258.768 95.9602V95.9702Z" fill="#08BDFD"/>
<path d="M286.199 45.99L286.289 10.53C286.299 4.70002 291.039 -0.00998411 296.859 1.58941e-05C302.689 0.0100159 307.399 4.75002 307.389 10.57C307.389 12.41 306.899 14.22 305.979 15.82L288.249 46.53C287.939 47.05 287.269 47.23 286.749 46.92C286.409 46.72 286.209 46.36 286.209 45.98L286.199 45.99Z" fill="#08BDFD"/>
<path d="M325.589 76.4702L350.729 51.4802C354.869 47.3702 361.549 47.3902 365.659 51.5202C369.769 55.6602 369.749 62.3402 365.619 66.4502C364.309 67.7402 362.689 68.6802 360.909 69.1602L326.669 78.3002C326.089 78.4502 325.489 78.1102 325.339 77.5302C325.229 77.1502 325.339 76.7502 325.599 76.4702H325.589Z" fill="#08BDFD"/>
<path d="M327.439 124.6L362.899 124.69C368.729 124.7 373.439 129.44 373.419 135.27C373.409 141.1 368.669 145.81 362.839 145.79C360.999 145.79 359.189 145.3 357.599 144.38L326.879 126.64C326.359 126.33 326.179 125.67 326.479 125.15C326.679 124.81 327.039 124.6 327.429 124.6H327.439Z" fill="#08BDFD"/>
<path d="M237.419 51.1398L229.389 16.5898C228.059 10.9198 222.389 7.38984 216.719 8.71984C211.049 10.0498 207.519 15.7198 208.849 21.3898C209.269 23.1698 210.139 24.8198 211.389 26.1598L235.559 52.1198C235.969 52.5598 236.659 52.5898 237.109 52.1798C237.399 51.9098 237.519 51.5098 237.429 51.1298L237.419 51.1398Z" fill="#08BDFD"/>
<path d="M210.298 90.9392L180.178 72.1892C175.238 69.1092 168.728 70.6092 165.648 75.5592C162.568 80.4992 164.068 87.0092 169.018 90.0892C170.588 91.0692 172.388 91.6192 174.238 91.6792L209.668 92.9692C210.278 92.9892 210.778 92.5092 210.798 91.8992C210.808 91.5092 210.618 91.1392 210.278 90.9292H210.298V90.9392Z" fill="#08BDFD"/>
<path d="M407.728 169.614V276H417.86V225.34H468.818V216.698H417.86V178.256H475.225V169.614H407.728ZM485.969 199.116V276H495.356V235.025C495.356 230.952 496.052 227.227 497.442 223.85C498.833 220.373 500.77 217.393 503.253 214.91C505.836 212.427 508.866 210.539 512.342 209.248C515.819 207.857 519.693 207.261 523.964 207.46V198.073C517.011 197.775 511.001 199.315 505.935 202.692C500.969 206.069 497.293 210.887 494.909 217.145H494.611V199.116H485.969ZM532.074 222.658H541.461C541.66 216.4 543.647 211.88 547.421 209.099C551.196 206.218 556.063 204.778 562.023 204.778C564.805 204.778 567.387 205.026 569.771 205.523C572.255 205.92 574.39 206.715 576.178 207.907C578.066 209.099 579.506 210.738 580.499 212.824C581.592 214.811 582.138 217.393 582.138 220.572C582.138 222.658 581.84 224.347 581.244 225.638C580.748 226.929 580.003 227.972 579.009 228.767C578.016 229.462 576.774 229.959 575.284 230.257C573.794 230.555 572.056 230.803 570.069 231.002C565.003 231.598 559.987 232.244 555.02 232.939C550.153 233.535 545.733 234.628 541.759 236.217C537.885 237.806 534.756 240.141 532.372 243.22C529.988 246.2 528.796 250.372 528.796 255.736C528.796 259.61 529.442 262.987 530.733 265.868C532.124 268.649 533.962 270.984 536.246 272.871C538.63 274.659 541.362 275.95 544.441 276.745C547.62 277.639 550.997 278.086 554.573 278.086C558.348 278.086 561.576 277.738 564.258 277.043C567.04 276.348 569.473 275.354 571.559 274.063C573.745 272.772 575.682 271.182 577.37 269.295C579.158 267.308 580.897 265.073 582.585 262.59H582.883C582.883 264.577 582.983 266.414 583.181 268.103C583.479 269.692 584.026 271.083 584.82 272.275C585.615 273.467 586.708 274.411 588.098 275.106C589.588 275.702 591.525 276 593.909 276C595.201 276 596.244 275.95 597.038 275.851C597.932 275.752 598.926 275.603 600.018 275.404V267.507C599.124 267.904 598.131 268.103 597.038 268.103C593.363 268.103 591.525 266.216 591.525 262.441V221.615C591.525 216.45 590.681 212.278 588.992 209.099C587.304 205.821 585.118 203.288 582.436 201.5C579.754 199.712 576.725 198.52 573.347 197.924C569.97 197.229 566.593 196.881 563.215 196.881C558.745 196.881 554.673 197.378 550.997 198.371C547.322 199.364 544.094 200.904 541.312 202.99C538.63 205.076 536.495 207.758 534.905 211.036C533.316 214.314 532.372 218.188 532.074 222.658ZM582.138 233.982V246.2C582.138 249.975 581.393 253.352 579.903 256.332C578.513 259.312 576.576 261.845 574.092 263.931C571.708 266.017 568.877 267.606 565.599 268.699C562.321 269.792 558.894 270.338 555.318 270.338C553.133 270.338 550.997 269.99 548.911 269.295C546.825 268.6 544.988 267.606 543.398 266.315C541.809 264.924 540.518 263.335 539.524 261.547C538.63 259.66 538.183 257.524 538.183 255.14C538.183 251.365 539.276 248.485 541.461 246.498C543.746 244.412 546.627 242.823 550.103 241.73C553.58 240.637 557.404 239.843 561.576 239.346C565.848 238.75 569.97 238.104 573.943 237.409C575.235 237.21 576.725 236.863 578.413 236.366C580.102 235.869 581.244 235.075 581.84 233.982H582.138ZM610.233 199.116V276H619.62V233.088C619.62 229.015 620.067 225.29 620.961 221.913C621.855 218.436 623.196 215.456 624.984 212.973C626.871 210.39 629.255 208.404 632.136 207.013C635.116 205.523 638.593 204.778 642.566 204.778C645.546 204.778 648.079 205.275 650.165 206.268C652.251 207.261 653.89 208.652 655.082 210.44C656.373 212.129 657.267 214.165 657.764 216.549C658.36 218.834 658.658 221.267 658.658 223.85V276H668.045V232.492C668.045 228.916 668.343 225.489 668.939 222.211C669.634 218.834 670.777 215.854 672.366 213.271C673.955 210.688 676.091 208.652 678.773 207.162C681.455 205.573 684.832 204.778 688.905 204.778C695.66 204.778 700.378 206.467 703.06 209.844C705.742 213.122 707.083 217.94 707.083 224.297V276H716.47V223.85C716.47 205.871 707.977 196.881 690.991 196.881C685.925 196.881 681.157 198.123 676.687 200.606C672.217 203.089 668.84 206.864 666.555 211.93C665.164 206.864 662.383 203.089 658.211 200.606C654.138 198.123 649.569 196.881 644.503 196.881C638.245 196.881 633.08 198.222 629.007 200.904C625.034 203.586 621.805 207.311 619.322 212.079H618.875V199.116H610.233ZM789.63 232.194H739.864C740.261 228.717 741.056 225.34 742.248 222.062C743.539 218.685 745.228 215.754 747.314 213.271C749.4 210.688 751.933 208.652 754.913 207.162C757.893 205.573 761.32 204.778 765.194 204.778C768.969 204.778 772.346 205.573 775.326 207.162C778.306 208.652 780.839 210.688 782.925 213.271C785.011 215.754 786.6 218.635 787.693 221.913C788.885 225.191 789.531 228.618 789.63 232.194ZM739.864 240.091H799.017C799.216 234.727 798.719 229.462 797.527 224.297C796.335 219.032 794.348 214.413 791.567 210.44C788.885 206.367 785.359 203.089 780.988 200.606C776.617 198.123 771.353 196.881 765.194 196.881C759.135 196.881 753.87 198.073 749.4 200.457C745.029 202.742 741.453 205.821 738.672 209.695C735.891 213.47 733.805 217.791 732.414 222.658C731.123 227.525 730.477 232.492 730.477 237.558C730.477 243.021 731.123 248.236 732.414 253.203C733.805 258.07 735.891 262.391 738.672 266.166C741.453 269.841 745.029 272.772 749.4 274.957C753.87 277.043 759.135 278.086 765.194 278.086C774.929 278.086 782.428 275.702 787.693 270.934C793.057 266.166 796.732 259.411 798.719 250.67H789.332C787.842 256.63 785.16 261.398 781.286 264.974C777.412 268.55 772.048 270.338 765.194 270.338C760.724 270.338 756.9 269.394 753.721 267.507C750.542 265.62 747.91 263.236 745.824 260.355C743.738 257.474 742.198 254.246 741.205 250.67C740.311 246.995 739.864 243.468 739.864 240.091ZM803.868 199.116L828.602 276H838.883L857.657 211.334H857.955L876.878 276H887.159L911.893 199.116H901.91L882.242 264.974H881.944L863.17 199.116H852.591L833.817 264.974H833.519L813.851 199.116H803.868ZM954.538 204.778C959.008 204.778 962.932 205.722 966.309 207.609C969.687 209.496 972.468 211.98 974.653 215.059C976.938 218.138 978.627 221.665 979.719 225.638C980.911 229.512 981.507 233.485 981.507 237.558C981.507 241.631 980.911 245.654 979.719 249.627C978.627 253.501 976.938 256.978 974.653 260.057C972.468 263.136 969.687 265.62 966.309 267.507C962.932 269.394 959.008 270.338 954.538 270.338C950.068 270.338 946.145 269.394 942.767 267.507C939.39 265.62 936.559 263.136 934.274 260.057C932.089 256.978 930.4 253.501 929.208 249.627C928.116 245.654 927.569 241.631 927.569 237.558C927.569 233.485 928.116 229.512 929.208 225.638C930.4 221.665 932.089 218.138 934.274 215.059C936.559 211.98 939.39 209.496 942.767 207.609C946.145 205.722 950.068 204.778 954.538 204.778ZM954.538 196.881C948.678 196.881 943.463 197.974 938.893 200.159C934.423 202.344 930.649 205.275 927.569 208.95C924.49 212.625 922.156 216.946 920.566 221.913C918.977 226.78 918.182 231.995 918.182 237.558C918.182 243.121 918.977 248.385 920.566 253.352C922.156 258.219 924.49 262.491 927.569 266.166C930.649 269.841 934.423 272.772 938.893 274.957C943.463 277.043 948.678 278.086 954.538 278.086C960.399 278.086 965.564 277.043 970.034 274.957C974.604 272.772 978.428 269.841 981.507 266.166C984.587 262.491 986.921 258.219 988.51 253.352C990.1 248.385 990.894 243.121 990.894 237.558C990.894 231.995 990.1 226.78 988.51 221.913C986.921 216.946 984.587 212.625 981.507 208.95C978.428 205.275 974.604 202.344 970.034 200.159C965.564 197.974 960.399 196.881 954.538 196.881ZM1004.85 199.116V276H1014.24V235.025C1014.24 230.952 1014.93 227.227 1016.32 223.85C1017.71 220.373 1019.65 217.393 1022.13 214.91C1024.72 212.427 1027.75 210.539 1031.22 209.248C1034.7 207.857 1038.57 207.261 1042.85 207.46V198.073C1035.89 197.775 1029.88 199.315 1024.82 202.692C1019.85 206.069 1016.17 210.887 1013.79 217.145H1013.49V199.116H1004.85ZM1051.85 169.614V276H1061.24V246.796L1076.43 234.131L1106.83 276H1118.6L1083.59 227.575L1116.37 199.116H1103.85L1061.24 236.366V169.614H1051.85Z" fill="#303030"/>
</g>
<defs>
<clipPath id="clip0_608_92">
<rect width="1117" height="336" fill="white"/>
</clipPath>
</defs>
</svg>
