<svg xmlns="http://www.w3.org/2000/svg" xmlns:xlink="http://www.w3.org/1999/xlink" width="1200" zoomAndPan="magnify" viewBox="0 0 900 470.25" height="627" preserveAspectRatio="xMidYMid meet" version="1.0"><defs><g/><clipPath id="eea54fad05"><path d="M 0.714844 0 L 899.28125 0 L 899.28125 469.5 L 0.714844 469.5 Z M 0.714844 0 " clip-rule="nonzero"/></clipPath></defs><g clip-path="url(#eea54fad05)"><path fill="#ffffff" d="M 0.714844 0 L 899.285156 0 L 899.285156 476.988281 L 0.714844 476.988281 Z M 0.714844 0 " fill-opacity="1" fill-rule="nonzero"/><path fill="#ffffff" d="M 0.714844 0 L 899.285156 0 L 899.285156 469.5 L 0.714844 469.5 Z M 0.714844 0 " fill-opacity="1" fill-rule="nonzero"/><path fill="#ffffff" d="M 0.714844 0 L 899.285156 0 L 899.285156 469.5 L 0.714844 469.5 Z M 0.714844 0 " fill-opacity="1" fill-rule="nonzero"/></g><g fill="#000e55" fill-opacity="1"><g transform="translate(47.666678, 233.266646)"><g><path d="M 24.96875 -22.53125 C 24.519531 -24.082031 23.695312 -25.300781 22.5 -26.1875 C 21.300781 -27.070312 19.796875 -27.515625 17.984375 -27.515625 C 15.441406 -27.515625 13.378906 -26.570312 11.796875 -24.6875 C 10.222656 -22.8125 9.4375 -20.140625 9.4375 -16.671875 C 9.4375 -13.191406 10.210938 -10.503906 11.765625 -8.609375 C 13.316406 -6.710938 15.414062 -5.765625 18.0625 -5.765625 C 20.394531 -5.765625 22.226562 -6.375 23.5625 -7.59375 C 24.90625 -8.8125 25.597656 -10.453125 25.640625 -12.515625 L 18.5 -12.515625 L 18.5 -17.8125 L 32.421875 -17.8125 L 32.421875 -13.625 C 32.421875 -10.707031 31.800781 -8.191406 30.5625 -6.078125 C 29.332031 -3.972656 27.632812 -2.359375 25.46875 -1.234375 C 23.3125 -0.109375 20.832031 0.453125 18.03125 0.453125 C 14.90625 0.453125 12.160156 -0.234375 9.796875 -1.609375 C 7.429688 -2.992188 5.59375 -4.960938 4.28125 -7.515625 C 2.96875 -10.066406 2.3125 -13.097656 2.3125 -16.609375 C 2.3125 -20.203125 3 -23.273438 4.375 -25.828125 C 5.75 -28.390625 7.609375 -30.347656 9.953125 -31.703125 C 12.304688 -33.054688 14.945312 -33.734375 17.875 -33.734375 C 20.382812 -33.734375 22.660156 -33.253906 24.703125 -32.296875 C 26.742188 -31.347656 28.410156 -30.03125 29.703125 -28.34375 C 31.003906 -26.664062 31.804688 -24.726562 32.109375 -22.53125 Z M 24.96875 -22.53125 "/></g></g></g><g fill="#000e55" fill-opacity="1"><g transform="translate(82.473598, 233.266646)"><g><path d="M 14.140625 0.484375 C 11.578125 0.484375 9.367188 -0.0351562 7.515625 -1.078125 C 5.671875 -2.128906 4.25 -3.613281 3.25 -5.53125 C 2.25 -7.457031 1.75 -9.738281 1.75 -12.375 C 1.75 -14.9375 2.25 -17.1875 3.25 -19.125 C 4.25 -21.0625 5.65625 -22.570312 7.46875 -23.65625 C 9.28125 -24.738281 11.410156 -25.28125 13.859375 -25.28125 C 16.054688 -25.28125 18.039062 -24.816406 19.8125 -23.890625 C 21.59375 -22.960938 23 -21.554688 24.03125 -19.671875 C 25.070312 -17.796875 25.59375 -15.441406 25.59375 -12.609375 L 25.59375 -10.703125 L 8.59375 -10.703125 L 8.59375 -10.6875 C 8.59375 -8.832031 9.101562 -7.367188 10.125 -6.296875 C 11.144531 -5.222656 12.519531 -4.6875 14.25 -4.6875 C 15.40625 -4.6875 16.40625 -4.925781 17.25 -5.40625 C 18.101562 -5.894531 18.703125 -6.617188 19.046875 -7.578125 L 25.453125 -7.15625 C 24.960938 -4.832031 23.722656 -2.976562 21.734375 -1.59375 C 19.753906 -0.207031 17.222656 0.484375 14.140625 0.484375 Z M 8.59375 -15 L 19.078125 -15 C 19.066406 -16.488281 18.585938 -17.710938 17.640625 -18.671875 C 16.703125 -19.640625 15.484375 -20.125 13.984375 -20.125 C 12.441406 -20.125 11.175781 -19.625 10.1875 -18.625 C 9.207031 -17.625 8.675781 -16.414062 8.59375 -15 Z M 8.59375 -15 "/></g></g></g><g fill="#000e55" fill-opacity="1"><g transform="translate(109.821893, 233.266646)"><g><path d="M 9.6875 -14.4375 L 9.6875 0 L 2.765625 0 L 2.765625 -24.96875 L 9.359375 -24.96875 L 9.359375 -20.5625 L 9.65625 -20.5625 C 10.21875 -22.007812 11.144531 -23.15625 12.4375 -24 C 13.738281 -24.851562 15.3125 -25.28125 17.15625 -25.28125 C 19.757812 -25.28125 21.847656 -24.441406 23.421875 -22.765625 C 24.992188 -21.097656 25.78125 -18.804688 25.78125 -15.890625 L 25.78125 0 L 18.859375 0 L 18.859375 -14.65625 C 18.867188 -16.1875 18.476562 -17.378906 17.6875 -18.234375 C 16.894531 -19.097656 15.804688 -19.53125 14.421875 -19.53125 C 13.015625 -19.53125 11.875 -19.082031 11 -18.1875 C 10.132812 -17.300781 9.695312 -16.050781 9.6875 -14.4375 Z M 9.6875 -14.4375 "/></g></g></g><g fill="#000e55" fill-opacity="1"><g transform="translate(138.275161, 233.266646)"><g><path d="M 2.765625 0 L 2.765625 -24.96875 L 9.6875 -24.96875 L 9.6875 0 Z M 6.234375 -28.1875 C 5.222656 -28.1875 4.347656 -28.53125 3.609375 -29.21875 C 2.867188 -29.90625 2.5 -30.726562 2.5 -31.6875 C 2.5 -32.65625 2.867188 -33.476562 3.609375 -34.15625 C 4.347656 -34.84375 5.222656 -35.1875 6.234375 -35.1875 C 7.265625 -35.1875 8.148438 -34.84375 8.890625 -34.15625 C 9.628906 -33.476562 10 -32.65625 10 -31.6875 C 10 -30.726562 9.628906 -29.90625 8.890625 -29.21875 C 8.148438 -28.53125 7.265625 -28.1875 6.234375 -28.1875 Z M 6.234375 -28.1875 "/></g></g></g><g fill="#000e55" fill-opacity="1"><g transform="translate(150.722456, 233.266646)"><g><path d="M 14.140625 0.484375 C 11.578125 0.484375 9.367188 -0.0351562 7.515625 -1.078125 C 5.671875 -2.128906 4.25 -3.613281 3.25 -5.53125 C 2.25 -7.457031 1.75 -9.738281 1.75 -12.375 C 1.75 -14.9375 2.25 -17.1875 3.25 -19.125 C 4.25 -21.0625 5.65625 -22.570312 7.46875 -23.65625 C 9.28125 -24.738281 11.410156 -25.28125 13.859375 -25.28125 C 16.054688 -25.28125 18.039062 -24.816406 19.8125 -23.890625 C 21.59375 -22.960938 23 -21.554688 24.03125 -19.671875 C 25.070312 -17.796875 25.59375 -15.441406 25.59375 -12.609375 L 25.59375 -10.703125 L 8.59375 -10.703125 L 8.59375 -10.6875 C 8.59375 -8.832031 9.101562 -7.367188 10.125 -6.296875 C 11.144531 -5.222656 12.519531 -4.6875 14.25 -4.6875 C 15.40625 -4.6875 16.40625 -4.925781 17.25 -5.40625 C 18.101562 -5.894531 18.703125 -6.617188 19.046875 -7.578125 L 25.453125 -7.15625 C 24.960938 -4.832031 23.722656 -2.976562 21.734375 -1.59375 C 19.753906 -0.207031 17.222656 0.484375 14.140625 0.484375 Z M 8.59375 -15 L 19.078125 -15 C 19.066406 -16.488281 18.585938 -17.710938 17.640625 -18.671875 C 16.703125 -19.640625 15.484375 -20.125 13.984375 -20.125 C 12.441406 -20.125 11.175781 -19.625 10.1875 -18.625 C 9.207031 -17.625 8.675781 -16.414062 8.59375 -15 Z M 8.59375 -15 "/></g></g></g><g fill="#000e55" fill-opacity="1"><g transform="translate(178.070751, 233.266646)"><g/></g></g><g fill="#000e55" fill-opacity="1"><g transform="translate(188.681818, 233.266646)"><g><path d="M 32.265625 -21.625 L 25.140625 -21.625 C 24.867188 -23.457031 24.085938 -24.894531 22.796875 -25.9375 C 21.515625 -26.988281 19.90625 -27.515625 17.96875 -27.515625 C 15.394531 -27.515625 13.328125 -26.566406 11.765625 -24.671875 C 10.210938 -22.785156 9.4375 -20.109375 9.4375 -16.640625 C 9.4375 -13.085938 10.21875 -10.382812 11.78125 -8.53125 C 13.351562 -6.6875 15.398438 -5.765625 17.921875 -5.765625 C 19.796875 -5.765625 21.382812 -6.253906 22.6875 -7.234375 C 23.988281 -8.222656 24.804688 -9.601562 25.140625 -11.375 L 32.265625 -11.34375 C 32.015625 -9.300781 31.285156 -7.378906 30.078125 -5.578125 C 28.878906 -3.785156 27.25 -2.332031 25.1875 -1.21875 C 23.125 -0.101562 20.664062 0.453125 17.8125 0.453125 C 14.84375 0.453125 12.191406 -0.21875 9.859375 -1.5625 C 7.523438 -2.90625 5.679688 -4.847656 4.328125 -7.390625 C 2.984375 -9.941406 2.3125 -13.023438 2.3125 -16.640625 C 2.3125 -20.273438 2.992188 -23.363281 4.359375 -25.90625 C 5.722656 -28.445312 7.570312 -30.382812 9.90625 -31.71875 C 12.25 -33.0625 14.882812 -33.734375 17.8125 -33.734375 C 20.375 -33.734375 22.6875 -33.257812 24.75 -32.3125 C 26.820312 -31.363281 28.515625 -29.988281 29.828125 -28.1875 C 31.148438 -26.382812 31.960938 -24.195312 32.265625 -21.625 Z M 32.265625 -21.625 "/></g></g></g><g fill="#000e55" fill-opacity="1"><g transform="translate(223.098739, 233.266646)"><g><path d="M 9.6875 -33.28125 L 9.6875 0 L 2.765625 0 L 2.765625 -33.28125 Z M 9.6875 -33.28125 "/></g></g></g><g fill="#000e55" fill-opacity="1"><g transform="translate(235.546034, 233.266646)"><g><path d="M 14.046875 0.484375 C 11.515625 0.484375 9.332031 -0.0507812 7.5 -1.125 C 5.664062 -2.207031 4.25 -3.710938 3.25 -5.640625 C 2.25 -7.578125 1.75 -9.828125 1.75 -12.390625 C 1.75 -14.960938 2.25 -17.210938 3.25 -19.140625 C 4.25 -21.078125 5.664062 -22.582031 7.5 -23.65625 C 9.332031 -24.738281 11.515625 -25.28125 14.046875 -25.28125 C 16.566406 -25.28125 18.742188 -24.738281 20.578125 -23.65625 C 22.421875 -22.582031 23.835938 -21.078125 24.828125 -19.140625 C 25.828125 -17.210938 26.328125 -14.960938 26.328125 -12.390625 C 26.328125 -9.828125 25.828125 -7.578125 24.828125 -5.640625 C 23.835938 -3.710938 22.421875 -2.207031 20.578125 -1.125 C 18.742188 -0.0507812 16.566406 0.484375 14.046875 0.484375 Z M 14.078125 -4.875 C 15.785156 -4.875 17.082031 -5.585938 17.96875 -7.015625 C 18.851562 -8.453125 19.296875 -10.257812 19.296875 -12.4375 C 19.296875 -14.613281 18.851562 -16.414062 17.96875 -17.84375 C 17.082031 -19.28125 15.785156 -20 14.078125 -20 C 12.328125 -20 11.007812 -19.28125 10.125 -17.84375 C 9.238281 -16.414062 8.796875 -14.613281 8.796875 -12.4375 C 8.796875 -10.257812 9.238281 -8.453125 10.125 -7.015625 C 11.007812 -5.585938 12.328125 -4.875 14.078125 -4.875 Z M 14.078125 -4.875 "/></g></g></g><g fill="#000e55" fill-opacity="1"><g transform="translate(263.625551, 233.266646)"><g><path d="M 18.765625 -10.625 L 18.765625 -24.96875 L 25.6875 -24.96875 L 25.6875 0 L 19.046875 0 L 19.046875 -4.53125 L 18.78125 -4.53125 C 18.21875 -3.070312 17.285156 -1.894531 15.984375 -1 C 14.679688 -0.113281 13.09375 0.328125 11.21875 0.328125 C 8.695312 0.328125 6.660156 -0.507812 5.109375 -2.1875 C 3.554688 -3.863281 2.773438 -6.15625 2.765625 -9.0625 L 2.765625 -24.96875 L 9.6875 -24.96875 L 9.6875 -10.296875 C 9.695312 -8.828125 10.09375 -7.664062 10.875 -6.8125 C 11.65625 -5.957031 12.703125 -5.53125 14.015625 -5.53125 C 15.253906 -5.53125 16.359375 -5.960938 17.328125 -6.828125 C 18.296875 -7.691406 18.773438 -8.957031 18.765625 -10.625 Z M 18.765625 -10.625 "/></g></g></g><g fill="#000e55" fill-opacity="1"><g transform="translate(292.078819, 233.266646)"><g><path d="M 11.96875 0.40625 C 10.070312 0.40625 8.359375 -0.0820312 6.828125 -1.0625 C 5.296875 -2.039062 4.082031 -3.484375 3.1875 -5.390625 C 2.289062 -7.304688 1.84375 -9.660156 1.84375 -12.453125 C 1.84375 -15.304688 2.300781 -17.679688 3.21875 -19.578125 C 4.144531 -21.484375 5.375 -22.910156 6.90625 -23.859375 C 8.445312 -24.804688 10.125 -25.28125 11.9375 -25.28125 C 13.34375 -25.28125 14.515625 -25.046875 15.453125 -24.578125 C 16.390625 -24.109375 17.144531 -23.523438 17.71875 -22.828125 C 18.300781 -22.140625 18.742188 -21.453125 19.046875 -20.765625 L 19.265625 -20.765625 L 19.265625 -33.28125 L 26.171875 -33.28125 L 26.171875 0 L 19.34375 0 L 19.34375 -4 L 19.046875 -4 C 18.734375 -3.300781 18.273438 -2.613281 17.671875 -1.9375 C 17.078125 -1.257812 16.3125 -0.695312 15.375 -0.25 C 14.445312 0.1875 13.3125 0.40625 11.96875 0.40625 Z M 14.15625 -5.109375 C 15.820312 -5.109375 17.113281 -5.78125 18.03125 -7.125 C 18.945312 -8.476562 19.40625 -10.265625 19.40625 -12.484375 C 19.40625 -14.710938 18.945312 -16.484375 18.03125 -17.796875 C 17.125 -19.117188 15.832031 -19.78125 14.15625 -19.78125 C 12.445312 -19.78125 11.144531 -19.101562 10.25 -17.75 C 9.351562 -16.40625 8.90625 -14.648438 8.90625 -12.484375 C 8.90625 -10.304688 9.351562 -8.53125 10.25 -7.15625 C 11.15625 -5.789062 12.457031 -5.109375 14.15625 -5.109375 Z M 14.15625 -5.109375 "/></g></g></g><g fill="#000e55" fill-opacity="1"><g transform="translate(321.149586, 233.266646)"><g/></g></g><g fill="#000e55" fill-opacity="1"><g transform="translate(331.760653, 233.266646)"><g><path d="M 2.890625 0 L 2.890625 -33.28125 L 16.03125 -33.28125 C 19.8125 -33.28125 22.742188 -32.296875 24.828125 -30.328125 C 26.910156 -28.359375 27.953125 -25.71875 27.953125 -22.40625 C 27.953125 -20.132812 27.445312 -18.191406 26.4375 -16.578125 C 25.425781 -14.960938 23.96875 -13.75 22.0625 -12.9375 L 29.140625 0 L 21.375 0 L 15.0625 -11.796875 L 9.9375 -11.796875 L 9.9375 0 Z M 9.9375 -17.453125 L 14.703125 -17.453125 C 18.703125 -17.453125 20.703125 -19.101562 20.703125 -22.40625 C 20.703125 -25.820312 18.691406 -27.53125 14.671875 -27.53125 L 9.9375 -27.53125 Z M 9.9375 -17.453125 "/></g></g></g><g fill="#000e55" fill-opacity="1"><g transform="translate(361.790165, 233.266646)"><g><path d="M 14.140625 0.484375 C 11.578125 0.484375 9.367188 -0.0351562 7.515625 -1.078125 C 5.671875 -2.128906 4.25 -3.613281 3.25 -5.53125 C 2.25 -7.457031 1.75 -9.738281 1.75 -12.375 C 1.75 -14.9375 2.25 -17.1875 3.25 -19.125 C 4.25 -21.0625 5.65625 -22.570312 7.46875 -23.65625 C 9.28125 -24.738281 11.410156 -25.28125 13.859375 -25.28125 C 16.054688 -25.28125 18.039062 -24.816406 19.8125 -23.890625 C 21.59375 -22.960938 23 -21.554688 24.03125 -19.671875 C 25.070312 -17.796875 25.59375 -15.441406 25.59375 -12.609375 L 25.59375 -10.703125 L 8.59375 -10.703125 L 8.59375 -10.6875 C 8.59375 -8.832031 9.101562 -7.367188 10.125 -6.296875 C 11.144531 -5.222656 12.519531 -4.6875 14.25 -4.6875 C 15.40625 -4.6875 16.40625 -4.925781 17.25 -5.40625 C 18.101562 -5.894531 18.703125 -6.617188 19.046875 -7.578125 L 25.453125 -7.15625 C 24.960938 -4.832031 23.722656 -2.976562 21.734375 -1.59375 C 19.753906 -0.207031 17.222656 0.484375 14.140625 0.484375 Z M 8.59375 -15 L 19.078125 -15 C 19.066406 -16.488281 18.585938 -17.710938 17.640625 -18.671875 C 16.703125 -19.640625 15.484375 -20.125 13.984375 -20.125 C 12.441406 -20.125 11.175781 -19.625 10.1875 -18.625 C 9.207031 -17.625 8.675781 -16.414062 8.59375 -15 Z M 8.59375 -15 "/></g></g></g><g fill="#000e55" fill-opacity="1"><g transform="translate(389.13846, 233.266646)"><g><path d="M 23.53125 -17.84375 L 17.1875 -17.453125 C 17.019531 -18.253906 16.582031 -18.941406 15.875 -19.515625 C 15.175781 -20.085938 14.222656 -20.375 13.015625 -20.375 C 11.941406 -20.375 11.035156 -20.148438 10.296875 -19.703125 C 9.554688 -19.253906 9.191406 -18.65625 9.203125 -17.90625 C 9.191406 -17.3125 9.425781 -16.804688 9.90625 -16.390625 C 10.382812 -15.984375 11.207031 -15.65625 12.375 -15.40625 L 16.890625 -14.5 C 21.679688 -13.507812 24.085938 -11.253906 24.109375 -7.734375 C 24.109375 -6.097656 23.625 -4.660156 22.65625 -3.421875 C 21.695312 -2.191406 20.382812 -1.234375 18.71875 -0.546875 C 17.050781 0.140625 15.140625 0.484375 12.984375 0.484375 C 9.679688 0.484375 7.046875 -0.203125 5.078125 -1.578125 C 3.117188 -2.960938 1.976562 -4.847656 1.65625 -7.234375 L 8.46875 -7.59375 C 8.6875 -6.570312 9.1875 -5.800781 9.96875 -5.28125 C 10.757812 -4.757812 11.769531 -4.5 13 -4.5 C 14.21875 -4.5 15.195312 -4.738281 15.9375 -5.21875 C 16.675781 -5.695312 17.050781 -6.300781 17.0625 -7.03125 C 17.03125 -8.269531 15.960938 -9.101562 13.859375 -9.53125 L 9.546875 -10.390625 C 4.710938 -11.347656 2.304688 -13.722656 2.328125 -17.515625 C 2.316406 -19.921875 3.273438 -21.816406 5.203125 -23.203125 C 7.140625 -24.585938 9.707031 -25.28125 12.90625 -25.28125 C 16.0625 -25.28125 18.546875 -24.613281 20.359375 -23.28125 C 22.171875 -21.957031 23.226562 -20.144531 23.53125 -17.84375 Z M 23.53125 -17.84375 "/></g></g></g><g fill="#000e55" fill-opacity="1"><g transform="translate(414.845544, 233.266646)"><g><path d="M 14.046875 0.484375 C 11.515625 0.484375 9.332031 -0.0507812 7.5 -1.125 C 5.664062 -2.207031 4.25 -3.710938 3.25 -5.640625 C 2.25 -7.578125 1.75 -9.828125 1.75 -12.390625 C 1.75 -14.960938 2.25 -17.210938 3.25 -19.140625 C 4.25 -21.078125 5.664062 -22.582031 7.5 -23.65625 C 9.332031 -24.738281 11.515625 -25.28125 14.046875 -25.28125 C 16.566406 -25.28125 18.742188 -24.738281 20.578125 -23.65625 C 22.421875 -22.582031 23.835938 -21.078125 24.828125 -19.140625 C 25.828125 -17.210938 26.328125 -14.960938 26.328125 -12.390625 C 26.328125 -9.828125 25.828125 -7.578125 24.828125 -5.640625 C 23.835938 -3.710938 22.421875 -2.207031 20.578125 -1.125 C 18.742188 -0.0507812 16.566406 0.484375 14.046875 0.484375 Z M 14.078125 -4.875 C 15.785156 -4.875 17.082031 -5.585938 17.96875 -7.015625 C 18.851562 -8.453125 19.296875 -10.257812 19.296875 -12.4375 C 19.296875 -14.613281 18.851562 -16.414062 17.96875 -17.84375 C 17.082031 -19.28125 15.785156 -20 14.078125 -20 C 12.328125 -20 11.007812 -19.28125 10.125 -17.84375 C 9.238281 -16.414062 8.796875 -14.613281 8.796875 -12.4375 C 8.796875 -10.257812 9.238281 -8.453125 10.125 -7.015625 C 11.007812 -5.585938 12.328125 -4.875 14.078125 -4.875 Z M 14.078125 -4.875 "/></g></g></g><g fill="#000e55" fill-opacity="1"><g transform="translate(442.925072, 233.266646)"><g><path d="M 18.765625 -10.625 L 18.765625 -24.96875 L 25.6875 -24.96875 L 25.6875 0 L 19.046875 0 L 19.046875 -4.53125 L 18.78125 -4.53125 C 18.21875 -3.070312 17.285156 -1.894531 15.984375 -1 C 14.679688 -0.113281 13.09375 0.328125 11.21875 0.328125 C 8.695312 0.328125 6.660156 -0.507812 5.109375 -2.1875 C 3.554688 -3.863281 2.773438 -6.15625 2.765625 -9.0625 L 2.765625 -24.96875 L 9.6875 -24.96875 L 9.6875 -10.296875 C 9.695312 -8.828125 10.09375 -7.664062 10.875 -6.8125 C 11.65625 -5.957031 12.703125 -5.53125 14.015625 -5.53125 C 15.253906 -5.53125 16.359375 -5.960938 17.328125 -6.828125 C 18.296875 -7.691406 18.773438 -8.957031 18.765625 -10.625 Z M 18.765625 -10.625 "/></g></g></g><g fill="#000e55" fill-opacity="1"><g transform="translate(471.378363, 233.266646)"><g><path d="M 2.765625 0 L 2.765625 -24.96875 L 9.46875 -24.96875 L 9.46875 -20.609375 L 9.734375 -20.609375 C 10.191406 -22.160156 10.953125 -23.332031 12.015625 -24.125 C 13.085938 -24.925781 14.328125 -25.328125 15.734375 -25.328125 C 16.398438 -25.328125 17.019531 -25.242188 17.59375 -25.078125 C 18.175781 -24.910156 18.691406 -24.6875 19.140625 -24.40625 L 17.0625 -18.6875 C 16.738281 -18.851562 16.382812 -18.992188 16 -19.109375 C 15.613281 -19.222656 15.179688 -19.28125 14.703125 -19.28125 C 13.304688 -19.28125 12.125 -18.800781 11.15625 -17.84375 C 10.1875 -16.894531 9.695312 -15.65625 9.6875 -14.125 L 9.6875 0 Z M 2.765625 0 "/></g></g></g><g fill="#000e55" fill-opacity="1"><g transform="translate(490.99178, 233.266646)"><g><path d="M 14.046875 0.484375 C 11.484375 0.484375 9.285156 -0.0546875 7.453125 -1.140625 C 5.617188 -2.234375 4.207031 -3.75 3.21875 -5.6875 C 2.238281 -7.625 1.75 -9.859375 1.75 -12.390625 C 1.75 -14.941406 2.242188 -17.179688 3.234375 -19.109375 C 4.234375 -21.046875 5.644531 -22.554688 7.46875 -23.640625 C 9.300781 -24.734375 11.484375 -25.28125 14.015625 -25.28125 C 16.191406 -25.28125 18.097656 -24.882812 19.734375 -24.09375 C 21.378906 -23.3125 22.675781 -22.203125 23.625 -20.765625 C 24.570312 -19.335938 25.09375 -17.660156 25.1875 -15.734375 L 18.65625 -15.734375 C 18.46875 -16.972656 17.984375 -17.972656 17.203125 -18.734375 C 16.421875 -19.503906 15.394531 -19.890625 14.125 -19.890625 C 12.519531 -19.890625 11.226562 -19.242188 10.25 -17.953125 C 9.28125 -16.671875 8.796875 -14.847656 8.796875 -12.484375 C 8.796875 -10.097656 9.28125 -8.25 10.25 -6.9375 C 11.21875 -5.632812 12.507812 -4.984375 14.125 -4.984375 C 15.3125 -4.984375 16.3125 -5.34375 17.125 -6.0625 C 17.9375 -6.789062 18.445312 -7.820312 18.65625 -9.15625 L 25.1875 -9.15625 C 25.082031 -7.25 24.566406 -5.566406 23.640625 -4.109375 C 22.710938 -2.660156 21.4375 -1.53125 19.8125 -0.71875 C 18.1875 0.0820312 16.265625 0.484375 14.046875 0.484375 Z M 14.046875 0.484375 "/></g></g></g><g fill="#000e55" fill-opacity="1"><g transform="translate(517.86885, 233.266646)"><g><path d="M 14.140625 0.484375 C 11.578125 0.484375 9.367188 -0.0351562 7.515625 -1.078125 C 5.671875 -2.128906 4.25 -3.613281 3.25 -5.53125 C 2.25 -7.457031 1.75 -9.738281 1.75 -12.375 C 1.75 -14.9375 2.25 -17.1875 3.25 -19.125 C 4.25 -21.0625 5.65625 -22.570312 7.46875 -23.65625 C 9.28125 -24.738281 11.410156 -25.28125 13.859375 -25.28125 C 16.054688 -25.28125 18.039062 -24.816406 19.8125 -23.890625 C 21.59375 -22.960938 23 -21.554688 24.03125 -19.671875 C 25.070312 -17.796875 25.59375 -15.441406 25.59375 -12.609375 L 25.59375 -10.703125 L 8.59375 -10.703125 L 8.59375 -10.6875 C 8.59375 -8.832031 9.101562 -7.367188 10.125 -6.296875 C 11.144531 -5.222656 12.519531 -4.6875 14.25 -4.6875 C 15.40625 -4.6875 16.40625 -4.925781 17.25 -5.40625 C 18.101562 -5.894531 18.703125 -6.617188 19.046875 -7.578125 L 25.453125 -7.15625 C 24.960938 -4.832031 23.722656 -2.976562 21.734375 -1.59375 C 19.753906 -0.207031 17.222656 0.484375 14.140625 0.484375 Z M 8.59375 -15 L 19.078125 -15 C 19.066406 -16.488281 18.585938 -17.710938 17.640625 -18.671875 C 16.703125 -19.640625 15.484375 -20.125 13.984375 -20.125 C 12.441406 -20.125 11.175781 -19.625 10.1875 -18.625 C 9.207031 -17.625 8.675781 -16.414062 8.59375 -15 Z M 8.59375 -15 "/></g></g></g><g fill="#000e55" fill-opacity="1"><g transform="translate(545.217169, 233.266646)"><g/></g></g><g fill="#000e55" fill-opacity="1"><g transform="translate(555.828235, 233.266646)"><g><path d="M 2.890625 0 L 2.890625 -33.28125 L 9.9375 -33.28125 L 9.9375 -19.546875 L 24.21875 -19.546875 L 24.21875 -33.28125 L 31.234375 -33.28125 L 31.234375 0 L 24.21875 0 L 24.21875 -13.75 L 9.9375 -13.75 L 9.9375 0 Z M 2.890625 0 "/></g></g></g><g fill="#000e55" fill-opacity="1"><g transform="translate(589.968913, 233.266646)"><g><path d="M 18.765625 -10.625 L 18.765625 -24.96875 L 25.6875 -24.96875 L 25.6875 0 L 19.046875 0 L 19.046875 -4.53125 L 18.78125 -4.53125 C 18.21875 -3.070312 17.285156 -1.894531 15.984375 -1 C 14.679688 -0.113281 13.09375 0.328125 11.21875 0.328125 C 8.695312 0.328125 6.660156 -0.507812 5.109375 -2.1875 C 3.554688 -3.863281 2.773438 -6.15625 2.765625 -9.0625 L 2.765625 -24.96875 L 9.6875 -24.96875 L 9.6875 -10.296875 C 9.695312 -8.828125 10.09375 -7.664062 10.875 -6.8125 C 11.65625 -5.957031 12.703125 -5.53125 14.015625 -5.53125 C 15.253906 -5.53125 16.359375 -5.960938 17.328125 -6.828125 C 18.296875 -7.691406 18.773438 -8.957031 18.765625 -10.625 Z M 18.765625 -10.625 "/></g></g></g><g fill="#000e55" fill-opacity="1"><g transform="translate(618.422158, 233.266646)"><g><path d="M 2.890625 0 L 2.890625 -33.28125 L 9.8125 -33.28125 L 9.8125 -20.765625 L 10.03125 -20.765625 C 10.34375 -21.453125 10.785156 -22.140625 11.359375 -22.828125 C 11.929688 -23.523438 12.6875 -24.109375 13.625 -24.578125 C 14.570312 -25.046875 15.738281 -25.28125 17.125 -25.28125 C 18.957031 -25.28125 20.632812 -24.804688 22.15625 -23.859375 C 23.6875 -22.910156 24.914062 -21.484375 25.84375 -19.578125 C 26.769531 -17.679688 27.234375 -15.304688 27.234375 -12.453125 C 27.234375 -9.660156 26.785156 -7.304688 25.890625 -5.390625 C 24.992188 -3.484375 23.78125 -2.039062 22.25 -1.0625 C 20.71875 -0.0820312 19.003906 0.40625 17.109375 0.40625 C 15.765625 0.40625 14.625 0.1875 13.6875 -0.25 C 12.75 -0.695312 11.984375 -1.257812 11.390625 -1.9375 C 10.804688 -2.613281 10.351562 -3.300781 10.03125 -4 L 9.71875 -4 L 9.71875 0 Z M 9.671875 -12.484375 C 9.671875 -10.265625 10.128906 -8.476562 11.046875 -7.125 C 11.960938 -5.78125 13.253906 -5.109375 14.921875 -5.109375 C 16.617188 -5.109375 17.914062 -5.789062 18.8125 -7.15625 C 19.71875 -8.53125 20.171875 -10.304688 20.171875 -12.484375 C 20.171875 -14.648438 19.722656 -16.40625 18.828125 -17.75 C 17.929688 -19.101562 16.628906 -19.78125 14.921875 -19.78125 C 13.242188 -19.78125 11.945312 -19.117188 11.03125 -17.796875 C 10.125 -16.484375 9.671875 -14.710938 9.671875 -12.484375 Z M 9.671875 -12.484375 "/></g></g></g><g fill="#000e55" fill-opacity="1"><g transform="translate(47.666678, 272.953348)"><g><path d="M 2.078125 0 L 2.078125 -17.140625 L 12.421875 -17.140625 L 12.421875 -15.3125 L 4.15625 -15.3125 L 4.15625 -9.515625 L 11.890625 -9.515625 L 11.890625 -7.671875 L 4.15625 -7.671875 L 4.15625 -1.84375 L 12.5625 -1.84375 L 12.5625 0 Z M 2.078125 0 "/></g></g></g><g fill="#000e55" fill-opacity="1"><g transform="translate(61.758122, 272.953348)"><g><path d="M 12.328125 -12.859375 L 7.5625 0 L 5.5625 0 L 0.796875 -12.859375 L 2.953125 -12.859375 L 6.5 -2.609375 L 6.625 -2.609375 L 10.1875 -12.859375 Z M 12.328125 -12.859375 "/></g></g></g><g fill="#000e55" fill-opacity="1"><g transform="translate(74.878903, 272.953348)"><g><path d="M 7.203125 0.265625 C 5.960938 0.265625 4.894531 -0.00390625 4 -0.546875 C 3.101562 -1.097656 2.410156 -1.867188 1.921875 -2.859375 C 1.441406 -3.859375 1.203125 -5.015625 1.203125 -6.328125 C 1.203125 -7.648438 1.441406 -8.8125 1.921875 -9.8125 C 2.410156 -10.820312 3.085938 -11.609375 3.953125 -12.171875 C 4.828125 -12.742188 5.84375 -13.03125 7 -13.03125 C 7.664062 -13.03125 8.328125 -12.914062 8.984375 -12.6875 C 9.640625 -12.46875 10.234375 -12.109375 10.765625 -11.609375 C 11.304688 -11.109375 11.734375 -10.445312 12.046875 -9.625 C 12.367188 -8.800781 12.53125 -7.789062 12.53125 -6.59375 L 12.53125 -5.765625 L 3.1875 -5.765625 C 3.226562 -4.390625 3.613281 -3.332031 4.34375 -2.59375 C 5.082031 -1.863281 6.035156 -1.5 7.203125 -1.5 C 7.972656 -1.5 8.640625 -1.664062 9.203125 -2 C 9.765625 -2.34375 10.171875 -2.847656 10.421875 -3.515625 L 12.328125 -2.984375 C 12.023438 -2.015625 11.421875 -1.226562 10.515625 -0.625 C 9.609375 -0.03125 8.503906 0.265625 7.203125 0.265625 Z M 3.1875 -7.46875 L 10.515625 -7.46875 C 10.515625 -8.550781 10.195312 -9.453125 9.5625 -10.171875 C 8.925781 -10.890625 8.070312 -11.25 7 -11.25 C 6.25 -11.25 5.597656 -11.070312 5.046875 -10.71875 C 4.492188 -10.375 4.054688 -9.910156 3.734375 -9.328125 C 3.410156 -8.753906 3.226562 -8.132812 3.1875 -7.46875 Z M 3.1875 -7.46875 "/></g></g></g><g fill="#000e55" fill-opacity="1"><g transform="translate(88.60216, 272.953348)"><g><path d="M 1.8125 0 L 1.8125 -12.859375 L 3.71875 -12.859375 L 3.71875 -10.921875 L 3.859375 -10.921875 C 4.078125 -11.554688 4.492188 -12.070312 5.109375 -12.46875 C 5.722656 -12.863281 6.421875 -13.0625 7.203125 -13.0625 C 7.554688 -13.0625 7.867188 -13.019531 8.140625 -12.9375 C 8.410156 -12.851562 8.644531 -12.738281 8.84375 -12.59375 L 8.171875 -10.921875 C 8.035156 -10.992188 7.875 -11.050781 7.6875 -11.09375 C 7.5 -11.132812 7.28125 -11.15625 7.03125 -11.15625 C 6.09375 -11.15625 5.316406 -10.867188 4.703125 -10.296875 C 4.085938 -9.722656 3.78125 -9.003906 3.78125 -8.140625 L 3.78125 0 Z M 1.8125 0 "/></g></g></g><g fill="#000e55" fill-opacity="1"><g transform="translate(97.639428, 272.953348)"><g><path d="M 3.015625 4.984375 C 2.679688 4.984375 2.378906 4.957031 2.109375 4.90625 C 1.847656 4.851562 1.671875 4.800781 1.578125 4.75 L 2.078125 3.015625 C 2.796875 3.203125 3.394531 3.195312 3.875 3 C 4.363281 2.8125 4.78125 2.234375 5.125 1.265625 L 5.5625 0.0625 L 0.796875 -12.859375 L 2.953125 -12.859375 L 6.5 -2.609375 L 6.625 -2.609375 L 10.1875 -12.859375 L 12.328125 -12.859375 L 6.796875 2.078125 C 6.066406 4.015625 4.804688 4.984375 3.015625 4.984375 Z M 3.015625 4.984375 "/></g></g></g><g fill="#000e55" fill-opacity="1"><g transform="translate(110.760209, 272.953348)"><g><path d="M 7.40625 -12.859375 L 7.40625 -11.1875 L 4.65625 -11.1875 L 4.65625 -3.6875 C 4.65625 -3.125 4.738281 -2.703125 4.90625 -2.421875 C 5.070312 -2.148438 5.28125 -1.96875 5.53125 -1.875 C 5.789062 -1.78125 6.066406 -1.734375 6.359375 -1.734375 C 6.578125 -1.734375 6.753906 -1.742188 6.890625 -1.765625 C 7.035156 -1.796875 7.148438 -1.820312 7.234375 -1.84375 L 7.640625 -0.0625 C 7.503906 -0.0078125 7.316406 0.0390625 7.078125 0.09375 C 6.835938 0.144531 6.53125 0.171875 6.15625 0.171875 C 5.601562 0.171875 5.054688 0.0507812 4.515625 -0.1875 C 3.984375 -0.425781 3.539062 -0.789062 3.1875 -1.28125 C 2.84375 -1.78125 2.671875 -2.398438 2.671875 -3.140625 L 2.671875 -11.1875 L 0.734375 -11.1875 L 0.734375 -12.859375 L 2.671875 -12.859375 L 2.671875 -15.9375 L 4.65625 -15.9375 L 4.65625 -12.859375 Z M 7.40625 -12.859375 "/></g></g></g><g fill="#000e55" fill-opacity="1"><g transform="translate(119.328879, 272.953348)"><g><path d="M 3.78125 -7.734375 L 3.78125 0 L 1.8125 0 L 1.8125 -17.140625 L 3.78125 -17.140625 L 3.78125 -10.84375 L 3.953125 -10.84375 C 4.253906 -11.507812 4.707031 -12.039062 5.3125 -12.4375 C 5.914062 -12.832031 6.722656 -13.03125 7.734375 -13.03125 C 9.054688 -13.03125 10.117188 -12.632812 10.921875 -11.84375 C 11.722656 -11.050781 12.125 -9.828125 12.125 -8.171875 L 12.125 0 L 10.140625 0 L 10.140625 -8.03125 C 10.140625 -9.0625 9.875 -9.851562 9.34375 -10.40625 C 8.820312 -10.96875 8.097656 -11.25 7.171875 -11.25 C 6.191406 -11.25 5.378906 -10.941406 4.734375 -10.328125 C 4.097656 -9.722656 3.78125 -8.859375 3.78125 -7.734375 Z M 3.78125 -7.734375 "/></g></g></g><g fill="#000e55" fill-opacity="1"><g transform="translate(133.252968, 272.953348)"><g><path d="M 1.8125 0 L 1.8125 -12.859375 L 3.78125 -12.859375 L 3.78125 0 Z M 2.8125 -15 C 2.425781 -15 2.09375 -15.128906 1.8125 -15.390625 C 1.539062 -15.660156 1.40625 -15.976562 1.40625 -16.34375 C 1.40625 -16.707031 1.539062 -17.019531 1.8125 -17.28125 C 2.09375 -17.550781 2.425781 -17.6875 2.8125 -17.6875 C 3.195312 -17.6875 3.523438 -17.550781 3.796875 -17.28125 C 4.078125 -17.019531 4.21875 -16.707031 4.21875 -16.34375 C 4.21875 -15.976562 4.078125 -15.660156 3.796875 -15.390625 C 3.523438 -15.128906 3.195312 -15 2.8125 -15 Z M 2.8125 -15 "/></g></g></g><g fill="#000e55" fill-opacity="1"><g transform="translate(138.842685, 272.953348)"><g><path d="M 3.78125 -7.734375 L 3.78125 0 L 1.8125 0 L 1.8125 -12.859375 L 3.71875 -12.859375 L 3.71875 -10.84375 L 3.890625 -10.84375 C 4.191406 -11.5 4.644531 -12.023438 5.25 -12.421875 C 5.863281 -12.828125 6.660156 -13.03125 7.640625 -13.03125 C 8.941406 -13.03125 9.988281 -12.628906 10.78125 -11.828125 C 11.582031 -11.035156 11.984375 -9.816406 11.984375 -8.171875 L 11.984375 0 L 10.015625 0 L 10.015625 -8.03125 C 10.015625 -9.039062 9.75 -9.828125 9.21875 -10.390625 C 8.695312 -10.960938 7.976562 -11.25 7.0625 -11.25 C 6.125 -11.25 5.34375 -10.941406 4.71875 -10.328125 C 4.09375 -9.722656 3.78125 -8.859375 3.78125 -7.734375 Z M 3.78125 -7.734375 "/></g></g></g><g fill="#000e55" fill-opacity="1"><g transform="translate(152.632886, 272.953348)"><g><path d="M 7 5.09375 C 5.5625 5.09375 4.425781 4.832031 3.59375 4.3125 C 2.757812 3.789062 2.140625 3.191406 1.734375 2.515625 L 3.3125 1.40625 C 3.488281 1.644531 3.710938 1.914062 3.984375 2.21875 C 4.265625 2.519531 4.644531 2.78125 5.125 3 C 5.601562 3.226562 6.226562 3.34375 7 3.34375 C 8.039062 3.34375 8.894531 3.09375 9.5625 2.59375 C 10.238281 2.09375 10.578125 1.304688 10.578125 0.234375 L 10.578125 -2.375 L 10.421875 -2.375 C 10.273438 -2.144531 10.066406 -1.859375 9.796875 -1.515625 C 9.535156 -1.171875 9.15625 -0.863281 8.65625 -0.59375 C 8.164062 -0.332031 7.503906 -0.203125 6.671875 -0.203125 C 5.628906 -0.203125 4.695312 -0.445312 3.875 -0.9375 C 3.050781 -1.425781 2.398438 -2.140625 1.921875 -3.078125 C 1.441406 -4.015625 1.203125 -5.15625 1.203125 -6.5 C 1.203125 -7.8125 1.429688 -8.957031 1.890625 -9.9375 C 2.359375 -10.914062 3.003906 -11.675781 3.828125 -12.21875 C 4.660156 -12.757812 5.617188 -13.03125 6.703125 -13.03125 C 7.535156 -13.03125 8.195312 -12.890625 8.6875 -12.609375 C 9.1875 -12.335938 9.566406 -12.023438 9.828125 -11.671875 C 10.097656 -11.328125 10.304688 -11.039062 10.453125 -10.8125 L 10.65625 -10.8125 L 10.65625 -12.859375 L 12.5625 -12.859375 L 12.5625 0.375 C 12.5625 1.476562 12.3125 2.375 11.8125 3.0625 C 11.3125 3.757812 10.640625 4.269531 9.796875 4.59375 C 8.960938 4.925781 8.03125 5.09375 7 5.09375 Z M 6.9375 -1.96875 C 8.125 -1.96875 9.03125 -2.367188 9.65625 -3.171875 C 10.289062 -3.984375 10.609375 -5.101562 10.609375 -6.53125 C 10.609375 -7.914062 10.296875 -9.046875 9.671875 -9.921875 C 9.046875 -10.804688 8.132812 -11.25 6.9375 -11.25 C 6.09375 -11.25 5.394531 -11.035156 4.84375 -10.609375 C 4.289062 -10.191406 3.875 -9.625 3.59375 -8.90625 C 3.320312 -8.195312 3.1875 -7.40625 3.1875 -6.53125 C 3.1875 -5.1875 3.5 -4.085938 4.125 -3.234375 C 4.757812 -2.390625 5.695312 -1.96875 6.9375 -1.96875 Z M 6.9375 -1.96875 "/></g></g></g><g fill="#000e55" fill-opacity="1"><g transform="translate(166.992106, 272.953348)"><g/></g></g><g fill="#000e55" fill-opacity="1"><g transform="translate(173.619441, 272.953348)"><g><path d="M 3.015625 4.984375 C 2.679688 4.984375 2.378906 4.957031 2.109375 4.90625 C 1.847656 4.851562 1.671875 4.800781 1.578125 4.75 L 2.078125 3.015625 C 2.796875 3.203125 3.394531 3.195312 3.875 3 C 4.363281 2.8125 4.78125 2.234375 5.125 1.265625 L 5.5625 0.0625 L 0.796875 -12.859375 L 2.953125 -12.859375 L 6.5 -2.609375 L 6.625 -2.609375 L 10.1875 -12.859375 L 12.328125 -12.859375 L 6.796875 2.078125 C 6.066406 4.015625 4.804688 4.984375 3.015625 4.984375 Z M 3.015625 4.984375 "/></g></g></g><g fill="#000e55" fill-opacity="1"><g transform="translate(186.740222, 272.953348)"><g><path d="M 7.03125 0.265625 C 5.875 0.265625 4.859375 -0.0078125 3.984375 -0.5625 C 3.109375 -1.113281 2.425781 -1.882812 1.9375 -2.875 C 1.445312 -3.875 1.203125 -5.035156 1.203125 -6.359375 C 1.203125 -7.703125 1.445312 -8.875 1.9375 -9.875 C 2.425781 -10.875 3.109375 -11.648438 3.984375 -12.203125 C 4.859375 -12.753906 5.875 -13.03125 7.03125 -13.03125 C 8.195312 -13.03125 9.210938 -12.753906 10.078125 -12.203125 C 10.953125 -11.648438 11.632812 -10.875 12.125 -9.875 C 12.613281 -8.875 12.859375 -7.703125 12.859375 -6.359375 C 12.859375 -5.035156 12.613281 -3.875 12.125 -2.875 C 11.632812 -1.882812 10.953125 -1.113281 10.078125 -0.5625 C 9.210938 -0.0078125 8.195312 0.265625 7.03125 0.265625 Z M 7.03125 -1.5 C 7.914062 -1.5 8.640625 -1.722656 9.203125 -2.171875 C 9.773438 -2.628906 10.195312 -3.226562 10.46875 -3.96875 C 10.75 -4.707031 10.890625 -5.503906 10.890625 -6.359375 C 10.890625 -7.222656 10.75 -8.023438 10.46875 -8.765625 C 10.195312 -9.503906 9.773438 -10.101562 9.203125 -10.5625 C 8.640625 -11.019531 7.914062 -11.25 7.03125 -11.25 C 6.144531 -11.25 5.414062 -11.019531 4.84375 -10.5625 C 4.28125 -10.101562 3.863281 -9.503906 3.59375 -8.765625 C 3.320312 -8.023438 3.1875 -7.222656 3.1875 -6.359375 C 3.1875 -5.503906 3.320312 -4.707031 3.59375 -3.96875 C 3.863281 -3.226562 4.28125 -2.628906 4.84375 -2.171875 C 5.414062 -1.722656 6.144531 -1.5 7.03125 -1.5 Z M 7.03125 -1.5 "/></g></g></g><g fill="#000e55" fill-opacity="1"><g transform="translate(200.7982, 272.953348)"><g><path d="M 9.90625 -5.265625 L 9.90625 -12.859375 L 11.890625 -12.859375 L 11.890625 0 L 9.90625 0 L 9.90625 -2.171875 L 9.78125 -2.171875 C 9.476562 -1.523438 9.007812 -0.972656 8.375 -0.515625 C 7.738281 -0.0546875 6.9375 0.171875 5.96875 0.171875 C 4.757812 0.171875 3.765625 -0.226562 2.984375 -1.03125 C 2.203125 -1.832031 1.8125 -3.050781 1.8125 -4.6875 L 1.8125 -12.859375 L 3.78125 -12.859375 L 3.78125 -4.828125 C 3.78125 -3.890625 4.039062 -3.140625 4.5625 -2.578125 C 5.09375 -2.015625 5.769531 -1.734375 6.59375 -1.734375 C 7.082031 -1.734375 7.582031 -1.859375 8.09375 -2.109375 C 8.601562 -2.367188 9.03125 -2.753906 9.375 -3.265625 C 9.726562 -3.785156 9.90625 -4.453125 9.90625 -5.265625 Z M 9.90625 -5.265625 "/></g></g></g><g fill="#000e55" fill-opacity="1"><g transform="translate(214.48799, 272.953348)"><g/></g></g><g fill="#000e55" fill-opacity="1"><g transform="translate(221.115325, 272.953348)"><g><path d="M 3.78125 -7.734375 L 3.78125 0 L 1.8125 0 L 1.8125 -12.859375 L 3.71875 -12.859375 L 3.71875 -10.84375 L 3.890625 -10.84375 C 4.191406 -11.5 4.644531 -12.023438 5.25 -12.421875 C 5.863281 -12.828125 6.660156 -13.03125 7.640625 -13.03125 C 8.941406 -13.03125 9.988281 -12.628906 10.78125 -11.828125 C 11.582031 -11.035156 11.984375 -9.816406 11.984375 -8.171875 L 11.984375 0 L 10.015625 0 L 10.015625 -8.03125 C 10.015625 -9.039062 9.75 -9.828125 9.21875 -10.390625 C 8.695312 -10.960938 7.976562 -11.25 7.0625 -11.25 C 6.125 -11.25 5.34375 -10.941406 4.71875 -10.328125 C 4.09375 -9.722656 3.78125 -8.859375 3.78125 -7.734375 Z M 3.78125 -7.734375 "/></g></g></g><g fill="#000e55" fill-opacity="1"><g transform="translate(234.905525, 272.953348)"><g><path d="M 7.203125 0.265625 C 5.960938 0.265625 4.894531 -0.00390625 4 -0.546875 C 3.101562 -1.097656 2.410156 -1.867188 1.921875 -2.859375 C 1.441406 -3.859375 1.203125 -5.015625 1.203125 -6.328125 C 1.203125 -7.648438 1.441406 -8.8125 1.921875 -9.8125 C 2.410156 -10.820312 3.085938 -11.609375 3.953125 -12.171875 C 4.828125 -12.742188 5.84375 -13.03125 7 -13.03125 C 7.664062 -13.03125 8.328125 -12.914062 8.984375 -12.6875 C 9.640625 -12.46875 10.234375 -12.109375 10.765625 -11.609375 C 11.304688 -11.109375 11.734375 -10.445312 12.046875 -9.625 C 12.367188 -8.800781 12.53125 -7.789062 12.53125 -6.59375 L 12.53125 -5.765625 L 3.1875 -5.765625 C 3.226562 -4.390625 3.613281 -3.332031 4.34375 -2.59375 C 5.082031 -1.863281 6.035156 -1.5 7.203125 -1.5 C 7.972656 -1.5 8.640625 -1.664062 9.203125 -2 C 9.765625 -2.34375 10.171875 -2.847656 10.421875 -3.515625 L 12.328125 -2.984375 C 12.023438 -2.015625 11.421875 -1.226562 10.515625 -0.625 C 9.609375 -0.03125 8.503906 0.265625 7.203125 0.265625 Z M 3.1875 -7.46875 L 10.515625 -7.46875 C 10.515625 -8.550781 10.195312 -9.453125 9.5625 -10.171875 C 8.925781 -10.890625 8.070312 -11.25 7 -11.25 C 6.25 -11.25 5.597656 -11.070312 5.046875 -10.71875 C 4.492188 -10.375 4.054688 -9.910156 3.734375 -9.328125 C 3.410156 -8.753906 3.226562 -8.132812 3.1875 -7.46875 Z M 3.1875 -7.46875 "/></g></g></g><g fill="#000e55" fill-opacity="1"><g transform="translate(248.628782, 272.953348)"><g><path d="M 7.203125 0.265625 C 5.960938 0.265625 4.894531 -0.00390625 4 -0.546875 C 3.101562 -1.097656 2.410156 -1.867188 1.921875 -2.859375 C 1.441406 -3.859375 1.203125 -5.015625 1.203125 -6.328125 C 1.203125 -7.648438 1.441406 -8.8125 1.921875 -9.8125 C 2.410156 -10.820312 3.085938 -11.609375 3.953125 -12.171875 C 4.828125 -12.742188 5.84375 -13.03125 7 -13.03125 C 7.664062 -13.03125 8.328125 -12.914062 8.984375 -12.6875 C 9.640625 -12.46875 10.234375 -12.109375 10.765625 -11.609375 C 11.304688 -11.109375 11.734375 -10.445312 12.046875 -9.625 C 12.367188 -8.800781 12.53125 -7.789062 12.53125 -6.59375 L 12.53125 -5.765625 L 3.1875 -5.765625 C 3.226562 -4.390625 3.613281 -3.332031 4.34375 -2.59375 C 5.082031 -1.863281 6.035156 -1.5 7.203125 -1.5 C 7.972656 -1.5 8.640625 -1.664062 9.203125 -2 C 9.765625 -2.34375 10.171875 -2.847656 10.421875 -3.515625 L 12.328125 -2.984375 C 12.023438 -2.015625 11.421875 -1.226562 10.515625 -0.625 C 9.609375 -0.03125 8.503906 0.265625 7.203125 0.265625 Z M 3.1875 -7.46875 L 10.515625 -7.46875 C 10.515625 -8.550781 10.195312 -9.453125 9.5625 -10.171875 C 8.925781 -10.890625 8.070312 -11.25 7 -11.25 C 6.25 -11.25 5.597656 -11.070312 5.046875 -10.71875 C 4.492188 -10.375 4.054688 -9.910156 3.734375 -9.328125 C 3.410156 -8.753906 3.226562 -8.132812 3.1875 -7.46875 Z M 3.1875 -7.46875 "/></g></g></g><g fill="#000e55" fill-opacity="1"><g transform="translate(262.352026, 272.953348)"><g><path d="M 6.671875 0.265625 C 5.597656 0.265625 4.648438 -0.00390625 3.828125 -0.546875 C 3.003906 -1.085938 2.359375 -1.859375 1.890625 -2.859375 C 1.429688 -3.859375 1.203125 -5.035156 1.203125 -6.390625 C 1.203125 -7.742188 1.429688 -8.914062 1.890625 -9.90625 C 2.359375 -10.90625 3.003906 -11.675781 3.828125 -12.21875 C 4.660156 -12.757812 5.617188 -13.03125 6.703125 -13.03125 C 7.535156 -13.03125 8.195312 -12.890625 8.6875 -12.609375 C 9.175781 -12.335938 9.550781 -12.023438 9.8125 -11.671875 C 10.070312 -11.328125 10.273438 -11.039062 10.421875 -10.8125 L 10.578125 -10.8125 L 10.578125 -17.140625 L 12.5625 -17.140625 L 12.5625 0 L 10.65625 0 L 10.65625 -1.96875 L 10.421875 -1.96875 C 10.273438 -1.738281 10.066406 -1.445312 9.796875 -1.09375 C 9.523438 -0.738281 9.140625 -0.421875 8.640625 -0.140625 C 8.148438 0.128906 7.492188 0.265625 6.671875 0.265625 Z M 6.9375 -1.5 C 8.125 -1.5 9.03125 -1.957031 9.65625 -2.875 C 10.289062 -3.789062 10.609375 -4.976562 10.609375 -6.4375 C 10.609375 -7.875 10.296875 -9.035156 9.671875 -9.921875 C 9.046875 -10.804688 8.132812 -11.25 6.9375 -11.25 C 6.09375 -11.25 5.394531 -11.035156 4.84375 -10.609375 C 4.289062 -10.179688 3.875 -9.601562 3.59375 -8.875 C 3.320312 -8.144531 3.1875 -7.332031 3.1875 -6.4375 C 3.1875 -5.519531 3.328125 -4.6875 3.609375 -3.9375 C 3.890625 -3.195312 4.304688 -2.601562 4.859375 -2.15625 C 5.410156 -1.71875 6.101562 -1.5 6.9375 -1.5 Z M 6.9375 -1.5 "/></g></g></g><g fill="#000e55" fill-opacity="1"><g transform="translate(276.979011, 272.953348)"><g/></g></g><g fill="#000e55" fill-opacity="1"><g transform="translate(283.606334, 272.953348)"><g><path d="M 7.40625 -12.859375 L 7.40625 -11.1875 L 4.65625 -11.1875 L 4.65625 -3.6875 C 4.65625 -3.125 4.738281 -2.703125 4.90625 -2.421875 C 5.070312 -2.148438 5.28125 -1.96875 5.53125 -1.875 C 5.789062 -1.78125 6.066406 -1.734375 6.359375 -1.734375 C 6.578125 -1.734375 6.753906 -1.742188 6.890625 -1.765625 C 7.035156 -1.796875 7.148438 -1.820312 7.234375 -1.84375 L 7.640625 -0.0625 C 7.503906 -0.0078125 7.316406 0.0390625 7.078125 0.09375 C 6.835938 0.144531 6.53125 0.171875 6.15625 0.171875 C 5.601562 0.171875 5.054688 0.0507812 4.515625 -0.1875 C 3.984375 -0.425781 3.539062 -0.789062 3.1875 -1.28125 C 2.84375 -1.78125 2.671875 -2.398438 2.671875 -3.140625 L 2.671875 -11.1875 L 0.734375 -11.1875 L 0.734375 -12.859375 L 2.671875 -12.859375 L 2.671875 -15.9375 L 4.65625 -15.9375 L 4.65625 -12.859375 Z M 7.40625 -12.859375 "/></g></g></g><g fill="#000e55" fill-opacity="1"><g transform="translate(292.175004, 272.953348)"><g><path d="M 7.03125 0.265625 C 5.875 0.265625 4.859375 -0.0078125 3.984375 -0.5625 C 3.109375 -1.113281 2.425781 -1.882812 1.9375 -2.875 C 1.445312 -3.875 1.203125 -5.035156 1.203125 -6.359375 C 1.203125 -7.703125 1.445312 -8.875 1.9375 -9.875 C 2.425781 -10.875 3.109375 -11.648438 3.984375 -12.203125 C 4.859375 -12.753906 5.875 -13.03125 7.03125 -13.03125 C 8.195312 -13.03125 9.210938 -12.753906 10.078125 -12.203125 C 10.953125 -11.648438 11.632812 -10.875 12.125 -9.875 C 12.613281 -8.875 12.859375 -7.703125 12.859375 -6.359375 C 12.859375 -5.035156 12.613281 -3.875 12.125 -2.875 C 11.632812 -1.882812 10.953125 -1.113281 10.078125 -0.5625 C 9.210938 -0.0078125 8.195312 0.265625 7.03125 0.265625 Z M 7.03125 -1.5 C 7.914062 -1.5 8.640625 -1.722656 9.203125 -2.171875 C 9.773438 -2.628906 10.195312 -3.226562 10.46875 -3.96875 C 10.75 -4.707031 10.890625 -5.503906 10.890625 -6.359375 C 10.890625 -7.222656 10.75 -8.023438 10.46875 -8.765625 C 10.195312 -9.503906 9.773438 -10.101562 9.203125 -10.5625 C 8.640625 -11.019531 7.914062 -11.25 7.03125 -11.25 C 6.144531 -11.25 5.414062 -11.019531 4.84375 -10.5625 C 4.28125 -10.101562 3.863281 -9.503906 3.59375 -8.765625 C 3.320312 -8.023438 3.1875 -7.222656 3.1875 -6.359375 C 3.1875 -5.503906 3.320312 -4.707031 3.59375 -3.96875 C 3.863281 -3.226562 4.28125 -2.628906 4.84375 -2.171875 C 5.414062 -1.722656 6.144531 -1.5 7.03125 -1.5 Z M 7.03125 -1.5 "/></g></g></g><g fill="#000e55" fill-opacity="1"><g transform="translate(306.232982, 272.953348)"><g/></g></g><g fill="#000e55" fill-opacity="1"><g transform="translate(312.860305, 272.953348)"><g><path d="M 3.78125 -17.140625 L 3.78125 0 L 1.8125 0 L 1.8125 -17.140625 Z M 3.78125 -17.140625 "/></g></g></g><g fill="#000e55" fill-opacity="1"><g transform="translate(318.450023, 272.953348)"><g><path d="M 7.203125 0.265625 C 5.960938 0.265625 4.894531 -0.00390625 4 -0.546875 C 3.101562 -1.097656 2.410156 -1.867188 1.921875 -2.859375 C 1.441406 -3.859375 1.203125 -5.015625 1.203125 -6.328125 C 1.203125 -7.648438 1.441406 -8.8125 1.921875 -9.8125 C 2.410156 -10.820312 3.085938 -11.609375 3.953125 -12.171875 C 4.828125 -12.742188 5.84375 -13.03125 7 -13.03125 C 7.664062 -13.03125 8.328125 -12.914062 8.984375 -12.6875 C 9.640625 -12.46875 10.234375 -12.109375 10.765625 -11.609375 C 11.304688 -11.109375 11.734375 -10.445312 12.046875 -9.625 C 12.367188 -8.800781 12.53125 -7.789062 12.53125 -6.59375 L 12.53125 -5.765625 L 3.1875 -5.765625 C 3.226562 -4.390625 3.613281 -3.332031 4.34375 -2.59375 C 5.082031 -1.863281 6.035156 -1.5 7.203125 -1.5 C 7.972656 -1.5 8.640625 -1.664062 9.203125 -2 C 9.765625 -2.34375 10.171875 -2.847656 10.421875 -3.515625 L 12.328125 -2.984375 C 12.023438 -2.015625 11.421875 -1.226562 10.515625 -0.625 C 9.609375 -0.03125 8.503906 0.265625 7.203125 0.265625 Z M 3.1875 -7.46875 L 10.515625 -7.46875 C 10.515625 -8.550781 10.195312 -9.453125 9.5625 -10.171875 C 8.925781 -10.890625 8.070312 -11.25 7 -11.25 C 6.25 -11.25 5.597656 -11.070312 5.046875 -10.71875 C 4.492188 -10.375 4.054688 -9.910156 3.734375 -9.328125 C 3.410156 -8.753906 3.226562 -8.132812 3.1875 -7.46875 Z M 3.1875 -7.46875 "/></g></g></g><g fill="#000e55" fill-opacity="1"><g transform="translate(332.173267, 272.953348)"><g><path d="M 5.59375 0.296875 C 4.78125 0.296875 4.039062 0.144531 3.375 -0.15625 C 2.707031 -0.46875 2.175781 -0.914062 1.78125 -1.5 C 1.394531 -2.09375 1.203125 -2.8125 1.203125 -3.65625 C 1.203125 -4.382812 1.347656 -4.976562 1.640625 -5.4375 C 1.929688 -5.90625 2.316406 -6.269531 2.796875 -6.53125 C 3.285156 -6.789062 3.820312 -6.984375 4.40625 -7.109375 C 5 -7.242188 5.597656 -7.351562 6.203125 -7.4375 C 6.984375 -7.539062 7.613281 -7.617188 8.09375 -7.671875 C 8.582031 -7.722656 8.941406 -7.8125 9.171875 -7.9375 C 9.398438 -8.0625 9.515625 -8.285156 9.515625 -8.609375 L 9.515625 -8.671875 C 9.515625 -9.492188 9.285156 -10.132812 8.828125 -10.59375 C 8.378906 -11.050781 7.703125 -11.28125 6.796875 -11.28125 C 5.859375 -11.28125 5.117188 -11.070312 4.578125 -10.65625 C 4.046875 -10.25 3.671875 -9.8125 3.453125 -9.34375 L 1.578125 -10.015625 C 1.910156 -10.796875 2.359375 -11.40625 2.921875 -11.84375 C 3.484375 -12.28125 4.097656 -12.585938 4.765625 -12.765625 C 5.429688 -12.941406 6.085938 -13.03125 6.734375 -13.03125 C 7.140625 -13.03125 7.613281 -12.976562 8.15625 -12.875 C 8.695312 -12.78125 9.21875 -12.582031 9.71875 -12.28125 C 10.226562 -11.976562 10.648438 -11.519531 10.984375 -10.90625 C 11.316406 -10.300781 11.484375 -9.488281 11.484375 -8.46875 L 11.484375 0 L 9.515625 0 L 9.515625 -1.734375 L 9.40625 -1.734375 C 9.269531 -1.460938 9.046875 -1.164062 8.734375 -0.84375 C 8.421875 -0.53125 8.003906 -0.257812 7.484375 -0.03125 C 6.972656 0.1875 6.34375 0.296875 5.59375 0.296875 Z M 5.890625 -1.46875 C 6.671875 -1.46875 7.332031 -1.617188 7.875 -1.921875 C 8.414062 -2.234375 8.820312 -2.632812 9.09375 -3.125 C 9.375 -3.613281 9.515625 -4.125 9.515625 -4.65625 L 9.515625 -6.46875 C 9.429688 -6.363281 9.25 -6.269531 8.96875 -6.1875 C 8.6875 -6.113281 8.359375 -6.046875 7.984375 -5.984375 C 7.617188 -5.921875 7.265625 -5.867188 6.921875 -5.828125 C 6.578125 -5.785156 6.300781 -5.753906 6.09375 -5.734375 C 5.582031 -5.660156 5.101562 -5.550781 4.65625 -5.40625 C 4.21875 -5.257812 3.863281 -5.035156 3.59375 -4.734375 C 3.320312 -4.441406 3.1875 -4.046875 3.1875 -3.546875 C 3.1875 -2.859375 3.441406 -2.335938 3.953125 -1.984375 C 4.460938 -1.640625 5.109375 -1.46875 5.890625 -1.46875 Z M 5.890625 -1.46875 "/></g></g></g><g fill="#000e55" fill-opacity="1"><g transform="translate(345.461415, 272.953348)"><g><path d="M 1.8125 0 L 1.8125 -12.859375 L 3.71875 -12.859375 L 3.71875 -10.921875 L 3.859375 -10.921875 C 4.078125 -11.554688 4.492188 -12.070312 5.109375 -12.46875 C 5.722656 -12.863281 6.421875 -13.0625 7.203125 -13.0625 C 7.554688 -13.0625 7.867188 -13.019531 8.140625 -12.9375 C 8.410156 -12.851562 8.644531 -12.738281 8.84375 -12.59375 L 8.171875 -10.921875 C 8.035156 -10.992188 7.875 -11.050781 7.6875 -11.09375 C 7.5 -11.132812 7.28125 -11.15625 7.03125 -11.15625 C 6.09375 -11.15625 5.316406 -10.867188 4.703125 -10.296875 C 4.085938 -9.722656 3.78125 -9.003906 3.78125 -8.140625 L 3.78125 0 Z M 1.8125 0 "/></g></g></g><g fill="#000e55" fill-opacity="1"><g transform="translate(354.498683, 272.953348)"><g><path d="M 3.78125 -7.734375 L 3.78125 0 L 1.8125 0 L 1.8125 -12.859375 L 3.71875 -12.859375 L 3.71875 -10.84375 L 3.890625 -10.84375 C 4.191406 -11.5 4.644531 -12.023438 5.25 -12.421875 C 5.863281 -12.828125 6.660156 -13.03125 7.640625 -13.03125 C 8.941406 -13.03125 9.988281 -12.628906 10.78125 -11.828125 C 11.582031 -11.035156 11.984375 -9.816406 11.984375 -8.171875 L 11.984375 0 L 10.015625 0 L 10.015625 -8.03125 C 10.015625 -9.039062 9.75 -9.828125 9.21875 -10.390625 C 8.695312 -10.960938 7.976562 -11.25 7.0625 -11.25 C 6.125 -11.25 5.34375 -10.941406 4.71875 -10.328125 C 4.09375 -9.722656 3.78125 -8.859375 3.78125 -7.734375 Z M 3.78125 -7.734375 "/></g></g></g><g fill="#000e55" fill-opacity="1"><g transform="translate(368.288883, 272.953348)"><g/></g></g><g fill="#000e55" fill-opacity="1"><g transform="translate(374.916207, 272.953348)"><g><path d="M 3.78125 -7.734375 L 3.78125 0 L 1.8125 0 L 1.8125 -17.140625 L 3.78125 -17.140625 L 3.78125 -10.84375 L 3.953125 -10.84375 C 4.253906 -11.507812 4.707031 -12.039062 5.3125 -12.4375 C 5.914062 -12.832031 6.722656 -13.03125 7.734375 -13.03125 C 9.054688 -13.03125 10.117188 -12.632812 10.921875 -11.84375 C 11.722656 -11.050781 12.125 -9.828125 12.125 -8.171875 L 12.125 0 L 10.140625 0 L 10.140625 -8.03125 C 10.140625 -9.0625 9.875 -9.851562 9.34375 -10.40625 C 8.820312 -10.96875 8.097656 -11.25 7.171875 -11.25 C 6.191406 -11.25 5.378906 -10.941406 4.734375 -10.328125 C 4.097656 -9.722656 3.78125 -8.859375 3.78125 -7.734375 Z M 3.78125 -7.734375 "/></g></g></g><g fill="#000e55" fill-opacity="1"><g transform="translate(388.840295, 272.953348)"><g><path d="M 7.03125 0.265625 C 5.875 0.265625 4.859375 -0.0078125 3.984375 -0.5625 C 3.109375 -1.113281 2.425781 -1.882812 1.9375 -2.875 C 1.445312 -3.875 1.203125 -5.035156 1.203125 -6.359375 C 1.203125 -7.703125 1.445312 -8.875 1.9375 -9.875 C 2.425781 -10.875 3.109375 -11.648438 3.984375 -12.203125 C 4.859375 -12.753906 5.875 -13.03125 7.03125 -13.03125 C 8.195312 -13.03125 9.210938 -12.753906 10.078125 -12.203125 C 10.953125 -11.648438 11.632812 -10.875 12.125 -9.875 C 12.613281 -8.875 12.859375 -7.703125 12.859375 -6.359375 C 12.859375 -5.035156 12.613281 -3.875 12.125 -2.875 C 11.632812 -1.882812 10.953125 -1.113281 10.078125 -0.5625 C 9.210938 -0.0078125 8.195312 0.265625 7.03125 0.265625 Z M 7.03125 -1.5 C 7.914062 -1.5 8.640625 -1.722656 9.203125 -2.171875 C 9.773438 -2.628906 10.195312 -3.226562 10.46875 -3.96875 C 10.75 -4.707031 10.890625 -5.503906 10.890625 -6.359375 C 10.890625 -7.222656 10.75 -8.023438 10.46875 -8.765625 C 10.195312 -9.503906 9.773438 -10.101562 9.203125 -10.5625 C 8.640625 -11.019531 7.914062 -11.25 7.03125 -11.25 C 6.144531 -11.25 5.414062 -11.019531 4.84375 -10.5625 C 4.28125 -10.101562 3.863281 -9.503906 3.59375 -8.765625 C 3.320312 -8.023438 3.1875 -7.222656 3.1875 -6.359375 C 3.1875 -5.503906 3.320312 -4.707031 3.59375 -3.96875 C 3.863281 -3.226562 4.28125 -2.628906 4.84375 -2.171875 C 5.414062 -1.722656 6.144531 -1.5 7.03125 -1.5 Z M 7.03125 -1.5 "/></g></g></g><g fill="#000e55" fill-opacity="1"><g transform="translate(402.898272, 272.953348)"><g><path d="M 4.71875 0 L 0.796875 -12.859375 L 2.875 -12.859375 L 5.65625 -3.015625 L 5.796875 -3.015625 L 8.546875 -12.859375 L 10.65625 -12.859375 L 13.359375 -3.046875 L 13.5 -3.046875 L 16.28125 -12.859375 L 18.359375 -12.859375 L 14.4375 0 L 12.5 0 L 9.671875 -9.875 L 9.484375 -9.875 L 6.671875 0 Z M 4.71875 0 "/></g></g></g><g fill="#000e55" fill-opacity="1"><g transform="translate(422.043891, 272.953348)"><g/></g></g><g fill="#000e55" fill-opacity="1"><g transform="translate(428.671215, 272.953348)"><g><path d="M 7.40625 -12.859375 L 7.40625 -11.1875 L 4.65625 -11.1875 L 4.65625 -3.6875 C 4.65625 -3.125 4.738281 -2.703125 4.90625 -2.421875 C 5.070312 -2.148438 5.28125 -1.96875 5.53125 -1.875 C 5.789062 -1.78125 6.066406 -1.734375 6.359375 -1.734375 C 6.578125 -1.734375 6.753906 -1.742188 6.890625 -1.765625 C 7.035156 -1.796875 7.148438 -1.820312 7.234375 -1.84375 L 7.640625 -0.0625 C 7.503906 -0.0078125 7.316406 0.0390625 7.078125 0.09375 C 6.835938 0.144531 6.53125 0.171875 6.15625 0.171875 C 5.601562 0.171875 5.054688 0.0507812 4.515625 -0.1875 C 3.984375 -0.425781 3.539062 -0.789062 3.1875 -1.28125 C 2.84375 -1.78125 2.671875 -2.398438 2.671875 -3.140625 L 2.671875 -11.1875 L 0.734375 -11.1875 L 0.734375 -12.859375 L 2.671875 -12.859375 L 2.671875 -15.9375 L 4.65625 -15.9375 L 4.65625 -12.859375 Z M 7.40625 -12.859375 "/></g></g></g><g fill="#000e55" fill-opacity="1"><g transform="translate(437.239885, 272.953348)"><g><path d="M 7.03125 0.265625 C 5.875 0.265625 4.859375 -0.0078125 3.984375 -0.5625 C 3.109375 -1.113281 2.425781 -1.882812 1.9375 -2.875 C 1.445312 -3.875 1.203125 -5.035156 1.203125 -6.359375 C 1.203125 -7.703125 1.445312 -8.875 1.9375 -9.875 C 2.425781 -10.875 3.109375 -11.648438 3.984375 -12.203125 C 4.859375 -12.753906 5.875 -13.03125 7.03125 -13.03125 C 8.195312 -13.03125 9.210938 -12.753906 10.078125 -12.203125 C 10.953125 -11.648438 11.632812 -10.875 12.125 -9.875 C 12.613281 -8.875 12.859375 -7.703125 12.859375 -6.359375 C 12.859375 -5.035156 12.613281 -3.875 12.125 -2.875 C 11.632812 -1.882812 10.953125 -1.113281 10.078125 -0.5625 C 9.210938 -0.0078125 8.195312 0.265625 7.03125 0.265625 Z M 7.03125 -1.5 C 7.914062 -1.5 8.640625 -1.722656 9.203125 -2.171875 C 9.773438 -2.628906 10.195312 -3.226562 10.46875 -3.96875 C 10.75 -4.707031 10.890625 -5.503906 10.890625 -6.359375 C 10.890625 -7.222656 10.75 -8.023438 10.46875 -8.765625 C 10.195312 -9.503906 9.773438 -10.101562 9.203125 -10.5625 C 8.640625 -11.019531 7.914062 -11.25 7.03125 -11.25 C 6.144531 -11.25 5.414062 -11.019531 4.84375 -10.5625 C 4.28125 -10.101562 3.863281 -9.503906 3.59375 -8.765625 C 3.320312 -8.023438 3.1875 -7.222656 3.1875 -6.359375 C 3.1875 -5.503906 3.320312 -4.707031 3.59375 -3.96875 C 3.863281 -3.226562 4.28125 -2.628906 4.84375 -2.171875 C 5.414062 -1.722656 6.144531 -1.5 7.03125 -1.5 Z M 7.03125 -1.5 "/></g></g></g><g fill="#000e55" fill-opacity="1"><g transform="translate(451.297862, 272.953348)"><g/></g></g><g fill="#000e55" fill-opacity="1"><g transform="translate(457.925185, 272.953348)"><g><path d="M 2.078125 0 L 2.078125 -17.140625 L 4.046875 -17.140625 L 4.046875 -10.8125 L 4.21875 -10.8125 C 4.363281 -11.039062 4.566406 -11.328125 4.828125 -11.671875 C 5.085938 -12.023438 5.460938 -12.335938 5.953125 -12.609375 C 6.441406 -12.890625 7.101562 -13.03125 7.9375 -13.03125 C 9.019531 -13.03125 9.972656 -12.757812 10.796875 -12.21875 C 11.628906 -11.675781 12.273438 -10.90625 12.734375 -9.90625 C 13.203125 -8.914062 13.4375 -7.742188 13.4375 -6.390625 C 13.4375 -5.035156 13.203125 -3.859375 12.734375 -2.859375 C 12.273438 -1.859375 11.632812 -1.085938 10.8125 -0.546875 C 9.988281 -0.00390625 9.039062 0.265625 7.96875 0.265625 C 7.144531 0.265625 6.484375 0.128906 5.984375 -0.140625 C 5.484375 -0.421875 5.097656 -0.738281 4.828125 -1.09375 C 4.566406 -1.445312 4.363281 -1.738281 4.21875 -1.96875 L 3.984375 -1.96875 L 3.984375 0 Z M 4.015625 -6.4375 C 4.015625 -4.976562 4.332031 -3.789062 4.96875 -2.875 C 5.601562 -1.957031 6.515625 -1.5 7.703125 -1.5 C 8.523438 -1.5 9.210938 -1.71875 9.765625 -2.15625 C 10.328125 -2.601562 10.75 -3.195312 11.03125 -3.9375 C 11.3125 -4.6875 11.453125 -5.519531 11.453125 -6.4375 C 11.453125 -7.332031 11.3125 -8.144531 11.03125 -8.875 C 10.757812 -9.601562 10.34375 -10.179688 9.78125 -10.609375 C 9.226562 -11.035156 8.535156 -11.25 7.703125 -11.25 C 6.492188 -11.25 5.578125 -10.804688 4.953125 -9.921875 C 4.328125 -9.035156 4.015625 -7.875 4.015625 -6.4375 Z M 4.015625 -6.4375 "/></g></g></g><g fill="#000e55" fill-opacity="1"><g transform="translate(472.55217, 272.953348)"><g><path d="M 9.90625 -5.265625 L 9.90625 -12.859375 L 11.890625 -12.859375 L 11.890625 0 L 9.90625 0 L 9.90625 -2.171875 L 9.78125 -2.171875 C 9.476562 -1.523438 9.007812 -0.972656 8.375 -0.515625 C 7.738281 -0.0546875 6.9375 0.171875 5.96875 0.171875 C 4.757812 0.171875 3.765625 -0.226562 2.984375 -1.03125 C 2.203125 -1.832031 1.8125 -3.050781 1.8125 -4.6875 L 1.8125 -12.859375 L 3.78125 -12.859375 L 3.78125 -4.828125 C 3.78125 -3.890625 4.039062 -3.140625 4.5625 -2.578125 C 5.09375 -2.015625 5.769531 -1.734375 6.59375 -1.734375 C 7.082031 -1.734375 7.582031 -1.859375 8.09375 -2.109375 C 8.601562 -2.367188 9.03125 -2.753906 9.375 -3.265625 C 9.726562 -3.785156 9.90625 -4.453125 9.90625 -5.265625 Z M 9.90625 -5.265625 "/></g></g></g><g fill="#000e55" fill-opacity="1"><g transform="translate(486.24196, 272.953348)"><g><path d="M 1.8125 0 L 1.8125 -12.859375 L 3.78125 -12.859375 L 3.78125 0 Z M 2.8125 -15 C 2.425781 -15 2.09375 -15.128906 1.8125 -15.390625 C 1.539062 -15.660156 1.40625 -15.976562 1.40625 -16.34375 C 1.40625 -16.707031 1.539062 -17.019531 1.8125 -17.28125 C 2.09375 -17.550781 2.425781 -17.6875 2.8125 -17.6875 C 3.195312 -17.6875 3.523438 -17.550781 3.796875 -17.28125 C 4.078125 -17.019531 4.21875 -16.707031 4.21875 -16.34375 C 4.21875 -15.976562 4.078125 -15.660156 3.796875 -15.390625 C 3.523438 -15.128906 3.195312 -15 2.8125 -15 Z M 2.8125 -15 "/></g></g></g><g fill="#000e55" fill-opacity="1"><g transform="translate(491.831678, 272.953348)"><g><path d="M 3.78125 -17.140625 L 3.78125 0 L 1.8125 0 L 1.8125 -17.140625 Z M 3.78125 -17.140625 "/></g></g></g><g fill="#000e55" fill-opacity="1"><g transform="translate(497.421396, 272.953348)"><g><path d="M 6.671875 0.265625 C 5.597656 0.265625 4.648438 -0.00390625 3.828125 -0.546875 C 3.003906 -1.085938 2.359375 -1.859375 1.890625 -2.859375 C 1.429688 -3.859375 1.203125 -5.035156 1.203125 -6.390625 C 1.203125 -7.742188 1.429688 -8.914062 1.890625 -9.90625 C 2.359375 -10.90625 3.003906 -11.675781 3.828125 -12.21875 C 4.660156 -12.757812 5.617188 -13.03125 6.703125 -13.03125 C 7.535156 -13.03125 8.195312 -12.890625 8.6875 -12.609375 C 9.175781 -12.335938 9.550781 -12.023438 9.8125 -11.671875 C 10.070312 -11.328125 10.273438 -11.039062 10.421875 -10.8125 L 10.578125 -10.8125 L 10.578125 -17.140625 L 12.5625 -17.140625 L 12.5625 0 L 10.65625 0 L 10.65625 -1.96875 L 10.421875 -1.96875 C 10.273438 -1.738281 10.066406 -1.445312 9.796875 -1.09375 C 9.523438 -0.738281 9.140625 -0.421875 8.640625 -0.140625 C 8.148438 0.128906 7.492188 0.265625 6.671875 0.265625 Z M 6.9375 -1.5 C 8.125 -1.5 9.03125 -1.957031 9.65625 -2.875 C 10.289062 -3.789062 10.609375 -4.976562 10.609375 -6.4375 C 10.609375 -7.875 10.296875 -9.035156 9.671875 -9.921875 C 9.046875 -10.804688 8.132812 -11.25 6.9375 -11.25 C 6.09375 -11.25 5.394531 -11.035156 4.84375 -10.609375 C 4.289062 -10.179688 3.875 -9.601562 3.59375 -8.875 C 3.320312 -8.144531 3.1875 -7.332031 3.1875 -6.4375 C 3.1875 -5.519531 3.328125 -4.6875 3.609375 -3.9375 C 3.890625 -3.195312 4.304688 -2.601562 4.859375 -2.15625 C 5.410156 -1.71875 6.101562 -1.5 6.9375 -1.5 Z M 6.9375 -1.5 "/></g></g></g><g fill="#000e55" fill-opacity="1"><g transform="translate(512.04838, 272.953348)"><g/></g></g><g fill="#000e55" fill-opacity="1"><g transform="translate(518.675704, 272.953348)"><g><path d="M 13.796875 -11.796875 C 13.429688 -12.921875 12.832031 -13.804688 12 -14.453125 C 11.175781 -15.109375 10.144531 -15.4375 8.90625 -15.4375 C 7.894531 -15.4375 6.972656 -15.171875 6.140625 -14.640625 C 5.304688 -14.117188 4.644531 -13.347656 4.15625 -12.328125 C 3.664062 -11.304688 3.421875 -10.054688 3.421875 -8.578125 C 3.421875 -7.085938 3.664062 -5.832031 4.15625 -4.8125 C 4.65625 -3.789062 5.328125 -3.015625 6.171875 -2.484375 C 7.023438 -1.960938 7.984375 -1.703125 9.046875 -1.703125 C 10.003906 -1.703125 10.859375 -1.90625 11.609375 -2.3125 C 12.359375 -2.726562 12.941406 -3.3125 13.359375 -4.0625 C 13.785156 -4.8125 14.007812 -5.703125 14.03125 -6.734375 L 9.515625 -6.734375 L 9.515625 -8.578125 L 16.046875 -8.578125 L 16.046875 -6.734375 C 16.046875 -5.316406 15.742188 -4.085938 15.140625 -3.046875 C 14.546875 -2.003906 13.71875 -1.195312 12.65625 -0.625 C 11.601562 -0.0507812 10.398438 0.234375 9.046875 0.234375 C 7.523438 0.234375 6.191406 -0.117188 5.046875 -0.828125 C 3.898438 -1.546875 3.003906 -2.5625 2.359375 -3.875 C 1.722656 -5.195312 1.40625 -6.765625 1.40625 -8.578125 C 1.40625 -10.378906 1.722656 -11.9375 2.359375 -13.25 C 3.003906 -14.570312 3.890625 -15.585938 5.015625 -16.296875 C 6.148438 -17.015625 7.445312 -17.375 8.90625 -17.375 C 10.113281 -17.375 11.207031 -17.140625 12.1875 -16.671875 C 13.175781 -16.203125 13.992188 -15.546875 14.640625 -14.703125 C 15.296875 -13.867188 15.726562 -12.898438 15.9375 -11.796875 Z M 13.796875 -11.796875 "/></g></g></g><g fill="#000e55" fill-opacity="1"><g transform="translate(536.181231, 272.953348)"><g><path d="M 7.203125 0.265625 C 5.960938 0.265625 4.894531 -0.00390625 4 -0.546875 C 3.101562 -1.097656 2.410156 -1.867188 1.921875 -2.859375 C 1.441406 -3.859375 1.203125 -5.015625 1.203125 -6.328125 C 1.203125 -7.648438 1.441406 -8.8125 1.921875 -9.8125 C 2.410156 -10.820312 3.085938 -11.609375 3.953125 -12.171875 C 4.828125 -12.742188 5.84375 -13.03125 7 -13.03125 C 7.664062 -13.03125 8.328125 -12.914062 8.984375 -12.6875 C 9.640625 -12.46875 10.234375 -12.109375 10.765625 -11.609375 C 11.304688 -11.109375 11.734375 -10.445312 12.046875 -9.625 C 12.367188 -8.800781 12.53125 -7.789062 12.53125 -6.59375 L 12.53125 -5.765625 L 3.1875 -5.765625 C 3.226562 -4.390625 3.613281 -3.332031 4.34375 -2.59375 C 5.082031 -1.863281 6.035156 -1.5 7.203125 -1.5 C 7.972656 -1.5 8.640625 -1.664062 9.203125 -2 C 9.765625 -2.34375 10.171875 -2.847656 10.421875 -3.515625 L 12.328125 -2.984375 C 12.023438 -2.015625 11.421875 -1.226562 10.515625 -0.625 C 9.609375 -0.03125 8.503906 0.265625 7.203125 0.265625 Z M 3.1875 -7.46875 L 10.515625 -7.46875 C 10.515625 -8.550781 10.195312 -9.453125 9.5625 -10.171875 C 8.925781 -10.890625 8.070312 -11.25 7 -11.25 C 6.25 -11.25 5.597656 -11.070312 5.046875 -10.71875 C 4.492188 -10.375 4.054688 -9.910156 3.734375 -9.328125 C 3.410156 -8.753906 3.226562 -8.132812 3.1875 -7.46875 Z M 3.1875 -7.46875 "/></g></g></g><g fill="#000e55" fill-opacity="1"><g transform="translate(549.904476, 272.953348)"><g><path d="M 3.78125 -7.734375 L 3.78125 0 L 1.8125 0 L 1.8125 -12.859375 L 3.71875 -12.859375 L 3.71875 -10.84375 L 3.890625 -10.84375 C 4.191406 -11.5 4.644531 -12.023438 5.25 -12.421875 C 5.863281 -12.828125 6.660156 -13.03125 7.640625 -13.03125 C 8.941406 -13.03125 9.988281 -12.628906 10.78125 -11.828125 C 11.582031 -11.035156 11.984375 -9.816406 11.984375 -8.171875 L 11.984375 0 L 10.015625 0 L 10.015625 -8.03125 C 10.015625 -9.039062 9.75 -9.828125 9.21875 -10.390625 C 8.695312 -10.960938 7.976562 -11.25 7.0625 -11.25 C 6.125 -11.25 5.34375 -10.941406 4.71875 -10.328125 C 4.09375 -9.722656 3.78125 -8.859375 3.78125 -7.734375 Z M 3.78125 -7.734375 "/></g></g></g><g fill="#000e55" fill-opacity="1"><g transform="translate(563.694676, 272.953348)"><g><path d="M 1.8125 0 L 1.8125 -12.859375 L 3.78125 -12.859375 L 3.78125 0 Z M 2.8125 -15 C 2.425781 -15 2.09375 -15.128906 1.8125 -15.390625 C 1.539062 -15.660156 1.40625 -15.976562 1.40625 -16.34375 C 1.40625 -16.707031 1.539062 -17.019531 1.8125 -17.28125 C 2.09375 -17.550781 2.425781 -17.6875 2.8125 -17.6875 C 3.195312 -17.6875 3.523438 -17.550781 3.796875 -17.28125 C 4.078125 -17.019531 4.21875 -16.707031 4.21875 -16.34375 C 4.21875 -15.976562 4.078125 -15.660156 3.796875 -15.390625 C 3.523438 -15.128906 3.195312 -15 2.8125 -15 Z M 2.8125 -15 "/></g></g></g><g fill="#000e55" fill-opacity="1"><g transform="translate(569.284394, 272.953348)"><g><path d="M 7.203125 0.265625 C 5.960938 0.265625 4.894531 -0.00390625 4 -0.546875 C 3.101562 -1.097656 2.410156 -1.867188 1.921875 -2.859375 C 1.441406 -3.859375 1.203125 -5.015625 1.203125 -6.328125 C 1.203125 -7.648438 1.441406 -8.8125 1.921875 -9.8125 C 2.410156 -10.820312 3.085938 -11.609375 3.953125 -12.171875 C 4.828125 -12.742188 5.84375 -13.03125 7 -13.03125 C 7.664062 -13.03125 8.328125 -12.914062 8.984375 -12.6875 C 9.640625 -12.46875 10.234375 -12.109375 10.765625 -11.609375 C 11.304688 -11.109375 11.734375 -10.445312 12.046875 -9.625 C 12.367188 -8.800781 12.53125 -7.789062 12.53125 -6.59375 L 12.53125 -5.765625 L 3.1875 -5.765625 C 3.226562 -4.390625 3.613281 -3.332031 4.34375 -2.59375 C 5.082031 -1.863281 6.035156 -1.5 7.203125 -1.5 C 7.972656 -1.5 8.640625 -1.664062 9.203125 -2 C 9.765625 -2.34375 10.171875 -2.847656 10.421875 -3.515625 L 12.328125 -2.984375 C 12.023438 -2.015625 11.421875 -1.226562 10.515625 -0.625 C 9.609375 -0.03125 8.503906 0.265625 7.203125 0.265625 Z M 3.1875 -7.46875 L 10.515625 -7.46875 C 10.515625 -8.550781 10.195312 -9.453125 9.5625 -10.171875 C 8.925781 -10.890625 8.070312 -11.25 7 -11.25 C 6.25 -11.25 5.597656 -11.070312 5.046875 -10.71875 C 4.492188 -10.375 4.054688 -9.910156 3.734375 -9.328125 C 3.410156 -8.753906 3.226562 -8.132812 3.1875 -7.46875 Z M 3.1875 -7.46875 "/></g></g></g><g fill="#000e55" fill-opacity="1"><g transform="translate(583.007638, 272.953348)"><g/></g></g><g fill="#000e55" fill-opacity="1"><g transform="translate(589.634962, 272.953348)"><g><path d="M 5.59375 0.296875 C 4.78125 0.296875 4.039062 0.144531 3.375 -0.15625 C 2.707031 -0.46875 2.175781 -0.914062 1.78125 -1.5 C 1.394531 -2.09375 1.203125 -2.8125 1.203125 -3.65625 C 1.203125 -4.382812 1.347656 -4.976562 1.640625 -5.4375 C 1.929688 -5.90625 2.316406 -6.269531 2.796875 -6.53125 C 3.285156 -6.789062 3.820312 -6.984375 4.40625 -7.109375 C 5 -7.242188 5.597656 -7.351562 6.203125 -7.4375 C 6.984375 -7.539062 7.613281 -7.617188 8.09375 -7.671875 C 8.582031 -7.722656 8.941406 -7.8125 9.171875 -7.9375 C 9.398438 -8.0625 9.515625 -8.285156 9.515625 -8.609375 L 9.515625 -8.671875 C 9.515625 -9.492188 9.285156 -10.132812 8.828125 -10.59375 C 8.378906 -11.050781 7.703125 -11.28125 6.796875 -11.28125 C 5.859375 -11.28125 5.117188 -11.070312 4.578125 -10.65625 C 4.046875 -10.25 3.671875 -9.8125 3.453125 -9.34375 L 1.578125 -10.015625 C 1.910156 -10.796875 2.359375 -11.40625 2.921875 -11.84375 C 3.484375 -12.28125 4.097656 -12.585938 4.765625 -12.765625 C 5.429688 -12.941406 6.085938 -13.03125 6.734375 -13.03125 C 7.140625 -13.03125 7.613281 -12.976562 8.15625 -12.875 C 8.695312 -12.78125 9.21875 -12.582031 9.71875 -12.28125 C 10.226562 -11.976562 10.648438 -11.519531 10.984375 -10.90625 C 11.316406 -10.300781 11.484375 -9.488281 11.484375 -8.46875 L 11.484375 0 L 9.515625 0 L 9.515625 -1.734375 L 9.40625 -1.734375 C 9.269531 -1.460938 9.046875 -1.164062 8.734375 -0.84375 C 8.421875 -0.53125 8.003906 -0.257812 7.484375 -0.03125 C 6.972656 0.1875 6.34375 0.296875 5.59375 0.296875 Z M 5.890625 -1.46875 C 6.671875 -1.46875 7.332031 -1.617188 7.875 -1.921875 C 8.414062 -2.234375 8.820312 -2.632812 9.09375 -3.125 C 9.375 -3.613281 9.515625 -4.125 9.515625 -4.65625 L 9.515625 -6.46875 C 9.429688 -6.363281 9.25 -6.269531 8.96875 -6.1875 C 8.6875 -6.113281 8.359375 -6.046875 7.984375 -5.984375 C 7.617188 -5.921875 7.265625 -5.867188 6.921875 -5.828125 C 6.578125 -5.785156 6.300781 -5.753906 6.09375 -5.734375 C 5.582031 -5.660156 5.101562 -5.550781 4.65625 -5.40625 C 4.21875 -5.257812 3.863281 -5.035156 3.59375 -4.734375 C 3.320312 -4.441406 3.1875 -4.046875 3.1875 -3.546875 C 3.1875 -2.859375 3.441406 -2.335938 3.953125 -1.984375 C 4.460938 -1.640625 5.109375 -1.46875 5.890625 -1.46875 Z M 5.890625 -1.46875 "/></g></g></g><g fill="#000e55" fill-opacity="1"><g transform="translate(602.92311, 272.953348)"><g><path d="M 1.8125 4.828125 L 1.8125 -12.859375 L 3.71875 -12.859375 L 3.71875 -10.8125 L 3.953125 -10.8125 C 4.097656 -11.039062 4.300781 -11.328125 4.5625 -11.671875 C 4.820312 -12.023438 5.191406 -12.335938 5.671875 -12.609375 C 6.160156 -12.890625 6.828125 -13.03125 7.671875 -13.03125 C 8.753906 -13.03125 9.707031 -12.757812 10.53125 -12.21875 C 11.351562 -11.675781 11.992188 -10.90625 12.453125 -9.90625 C 12.921875 -8.914062 13.15625 -7.742188 13.15625 -6.390625 C 13.15625 -5.035156 12.921875 -3.859375 12.453125 -2.859375 C 11.992188 -1.859375 11.351562 -1.085938 10.53125 -0.546875 C 9.71875 -0.00390625 8.773438 0.265625 7.703125 0.265625 C 6.878906 0.265625 6.21875 0.128906 5.71875 -0.140625 C 5.21875 -0.421875 4.832031 -0.738281 4.5625 -1.09375 C 4.300781 -1.445312 4.097656 -1.738281 3.953125 -1.96875 L 3.78125 -1.96875 L 3.78125 4.828125 Z M 3.75 -6.4375 C 3.75 -4.976562 4.066406 -3.789062 4.703125 -2.875 C 5.335938 -1.957031 6.25 -1.5 7.4375 -1.5 C 8.257812 -1.5 8.945312 -1.71875 9.5 -2.15625 C 10.0625 -2.601562 10.484375 -3.195312 10.765625 -3.9375 C 11.046875 -4.6875 11.1875 -5.519531 11.1875 -6.4375 C 11.1875 -7.332031 11.046875 -8.144531 10.765625 -8.875 C 10.492188 -9.601562 10.078125 -10.179688 9.515625 -10.609375 C 8.960938 -11.035156 8.269531 -11.25 7.4375 -11.25 C 6.226562 -11.25 5.3125 -10.804688 4.6875 -9.921875 C 4.0625 -9.035156 3.75 -7.875 3.75 -6.4375 Z M 3.75 -6.4375 "/></g></g></g><g fill="#000e55" fill-opacity="1"><g transform="translate(617.282318, 272.953348)"><g><path d="M 1.8125 4.828125 L 1.8125 -12.859375 L 3.71875 -12.859375 L 3.71875 -10.8125 L 3.953125 -10.8125 C 4.097656 -11.039062 4.300781 -11.328125 4.5625 -11.671875 C 4.820312 -12.023438 5.191406 -12.335938 5.671875 -12.609375 C 6.160156 -12.890625 6.828125 -13.03125 7.671875 -13.03125 C 8.753906 -13.03125 9.707031 -12.757812 10.53125 -12.21875 C 11.351562 -11.675781 11.992188 -10.90625 12.453125 -9.90625 C 12.921875 -8.914062 13.15625 -7.742188 13.15625 -6.390625 C 13.15625 -5.035156 12.921875 -3.859375 12.453125 -2.859375 C 11.992188 -1.859375 11.351562 -1.085938 10.53125 -0.546875 C 9.71875 -0.00390625 8.773438 0.265625 7.703125 0.265625 C 6.878906 0.265625 6.21875 0.128906 5.71875 -0.140625 C 5.21875 -0.421875 4.832031 -0.738281 4.5625 -1.09375 C 4.300781 -1.445312 4.097656 -1.738281 3.953125 -1.96875 L 3.78125 -1.96875 L 3.78125 4.828125 Z M 3.75 -6.4375 C 3.75 -4.976562 4.066406 -3.789062 4.703125 -2.875 C 5.335938 -1.957031 6.25 -1.5 7.4375 -1.5 C 8.257812 -1.5 8.945312 -1.71875 9.5 -2.15625 C 10.0625 -2.601562 10.484375 -3.195312 10.765625 -3.9375 C 11.046875 -4.6875 11.1875 -5.519531 11.1875 -6.4375 C 11.1875 -7.332031 11.046875 -8.144531 10.765625 -8.875 C 10.492188 -9.601562 10.078125 -10.179688 9.515625 -10.609375 C 8.960938 -11.035156 8.269531 -11.25 7.4375 -11.25 C 6.226562 -11.25 5.3125 -10.804688 4.6875 -9.921875 C 4.0625 -9.035156 3.75 -7.875 3.75 -6.4375 Z M 3.75 -6.4375 "/></g></g></g><g fill="#000e55" fill-opacity="1"><g transform="translate(631.641526, 272.953348)"><g><path d="M 10.921875 -9.984375 L 9.140625 -9.484375 C 8.972656 -9.921875 8.679688 -10.335938 8.265625 -10.734375 C 7.859375 -11.128906 7.222656 -11.328125 6.359375 -11.328125 C 5.578125 -11.328125 4.921875 -11.144531 4.390625 -10.78125 C 3.867188 -10.414062 3.609375 -9.957031 3.609375 -9.40625 C 3.609375 -8.914062 3.785156 -8.53125 4.140625 -8.25 C 4.503906 -7.96875 5.066406 -7.726562 5.828125 -7.53125 L 7.734375 -7.0625 C 10.015625 -6.507812 11.15625 -5.347656 11.15625 -3.578125 C 11.15625 -2.847656 10.941406 -2.191406 10.515625 -1.609375 C 10.097656 -1.023438 9.507812 -0.566406 8.75 -0.234375 C 8 0.0976562 7.125 0.265625 6.125 0.265625 C 4.8125 0.265625 3.722656 -0.015625 2.859375 -0.578125 C 2.003906 -1.148438 1.460938 -1.984375 1.234375 -3.078125 L 3.109375 -3.546875 C 3.460938 -2.160156 4.457031 -1.46875 6.09375 -1.46875 C 7.019531 -1.46875 7.753906 -1.664062 8.296875 -2.0625 C 8.835938 -2.457031 9.109375 -2.929688 9.109375 -3.484375 C 9.109375 -4.390625 8.472656 -4.992188 7.203125 -5.296875 L 5.0625 -5.796875 C 3.882812 -6.078125 3.019531 -6.507812 2.46875 -7.09375 C 1.914062 -7.6875 1.640625 -8.425781 1.640625 -9.3125 C 1.640625 -10.039062 1.84375 -10.679688 2.25 -11.234375 C 2.664062 -11.796875 3.226562 -12.234375 3.9375 -12.546875 C 4.644531 -12.867188 5.453125 -13.03125 6.359375 -13.03125 C 7.628906 -13.03125 8.628906 -12.75 9.359375 -12.1875 C 10.085938 -11.632812 10.609375 -10.898438 10.921875 -9.984375 Z M 10.921875 -9.984375 "/></g></g></g><g fill="#000e55" fill-opacity="1"><g transform="translate(643.958978, 272.953348)"><g><path d="M 3.25 0.140625 C 2.832031 0.140625 2.472656 -0.00390625 2.171875 -0.296875 C 1.878906 -0.597656 1.734375 -0.957031 1.734375 -1.375 C 1.734375 -1.789062 1.878906 -2.144531 2.171875 -2.4375 C 2.472656 -2.726562 2.832031 -2.875 3.25 -2.875 C 3.664062 -2.875 4.019531 -2.726562 4.3125 -2.4375 C 4.601562 -2.144531 4.75 -1.789062 4.75 -1.375 C 4.75 -0.957031 4.601562 -0.597656 4.3125 -0.296875 C 4.019531 -0.00390625 3.664062 0.140625 3.25 0.140625 Z M 3.25 0.140625 "/></g></g></g><path fill="#000e55" d="M 84.652344 80.179688 C 84.855469 79.921875 85.601562 80.152344 85.457031 80.617188 C 85.023438 81.964844 83.816406 83.496094 82.308594 83.363281 C 79.066406 83.078125 80.507812 75.527344 81.285156 73.769531 C 81.410156 73.484375 83.519531 73.492188 83.160156 74.828125 C 82.902344 75.824219 81.0625 81.933594 82.84375 82.148438 C 83.695312 82.253906 84.296875 80.628906 84.652344 80.179688 Z M 84.652344 80.179688 " fill-opacity="1" fill-rule="nonzero"/><path fill="#000e55" d="M 86.210938 81.578125 C 86.042969 81.980469 86.804688 83.546875 87.71875 83.667969 C 89.25 83.871094 90.207031 80.871094 90.785156 80.273438 C 91.113281 79.933594 91.703125 80.429688 91.617188 80.734375 C 91.113281 82.519531 89.273438 85.03125 87.164062 84.71875 C 84.75 84.363281 83.933594 81.421875 84.089844 79.332031 C 84.269531 76.867188 85.101562 72.15625 88.488281 72.105469 C 89.953125 72.085938 90.511719 73.519531 90.324219 74.734375 C 89.90625 77.460938 86.730469 80.308594 86.210938 81.578125 Z M 86.113281 80.347656 C 86.257812 80.40625 88.296875 76.507812 88.539062 74.359375 C 88.605469 73.773438 88.429688 73.429688 88.21875 73.46875 C 86.703125 73.738281 86.265625 78.125 86.140625 79.625 C 86.117188 79.886719 86.113281 80.347656 86.113281 80.347656 Z M 86.113281 80.347656 " fill-opacity="1" fill-rule="nonzero"/><path fill="#000e55" d="M 76.539062 77.71875 C 75.710938 79.726562 74.730469 82.9375 73.792969 85.746094 C 72.578125 86.308594 72.0625 85.925781 72.039062 85.285156 C 71.996094 83.59375 72.332031 79.03125 72.65625 75.609375 L 73.492188 75.152344 C 74.285156 74.722656 74.914062 74.976562 74.84375 75.578125 C 74.605469 77.464844 73.953125 80.390625 73.757812 82.773438 C 74.972656 79.054688 75.714844 77.246094 76.722656 75.050781 C 77.054688 74.328125 78.019531 74.121094 78.960938 75.132812 C 77.832031 81.710938 78.464844 83.441406 79.132812 83.40625 C 79.742188 83.375 80.1875 82.976562 80.789062 81.296875 C 81.132812 81.003906 81.730469 81.117188 81.628906 81.554688 C 81.257812 83.070312 80.074219 84.46875 78.675781 84.59375 C 76.828125 84.761719 76.078125 81.941406 76.539062 77.71875 Z M 76.539062 77.71875 " fill-opacity="1" fill-rule="nonzero"/><path fill="#000e55" d="M 65.535156 76.976562 C 65.347656 76.585938 64.90625 76.394531 64.496094 76.527344 C 64.046875 76.671875 63.605469 76.851562 63.179688 77.058594 C 62.109375 77.589844 61.164062 78.367188 60.363281 79.265625 C 59.640625 80.066406 59.039062 80.96875 58.578125 81.945312 C 58.453125 82.214844 58.664062 82.527344 58.949219 82.496094 C 59.164062 82.476562 59.25 82.292969 59.359375 82.132812 C 59.492188 81.929688 59.632812 81.734375 59.789062 81.542969 C 60.152344 81.082031 60.550781 80.652344 60.984375 80.253906 C 61.78125 79.527344 62.71875 78.902344 63.734375 78.550781 C 63.1875 84.96875 61.71875 88.835938 60.5625 89.042969 C 59.394531 89.253906 57.40625 87.355469 56.535156 81.910156 C 55.027344 72.492188 57.714844 67.808594 60.625 67.285156 C 62.292969 66.984375 63.386719 69.289062 62.105469 73.957031 C 61.996094 74.332031 62.253906 75.097656 63.492188 74.871094 C 66 74.417969 67.261719 64.285156 61.046875 65.410156 C 54.6875 66.558594 52.113281 76.890625 53.246094 83.949219 C 54.246094 90.21875 57.523438 91.988281 58.996094 91.722656 C 60.933594 91.371094 63.042969 89.722656 64.460938 84.390625 C 65.1875 82.109375 65.613281 77.453125 65.613281 77.453125 C 65.632812 77.289062 65.605469 77.125 65.535156 76.976562 Z M 65.535156 76.976562 " fill-opacity="1" fill-rule="nonzero"/><path fill="#000e55" d="M 72.652344 83.234375 L 72.089844 83.234375 C 71.9375 86.542969 69.730469 86.363281 68.929688 86.140625 C 68.132812 85.917969 67.496094 85.050781 67.644531 84.695312 C 68.132812 83.519531 71.164062 80.871094 71.550781 78.335938 C 71.726562 77.207031 71.125 75.875 69.761719 75.894531 C 66.617188 75.9375 65.84375 80.320312 65.675781 82.609375 C 65.535156 84.507812 66.261719 86.691406 68.394531 87.117188 C 68.394531 87.117188 70.425781 87.585938 71.644531 86.375 C 71.644531 86.375 72.867188 85.265625 72.652344 83.234375 Z M 67.554688 83.554688 C 67.554688 83.554688 67.5625 83.125 67.582031 82.878906 C 67.699219 81.488281 68.109375 77.410156 69.515625 77.160156 C 69.710938 77.125 69.957031 77.441406 69.894531 77.988281 C 69.667969 79.984375 67.691406 83.605469 67.554688 83.554688 Z M 67.554688 83.554688 " fill-opacity="1" fill-rule="nonzero"/><path fill="#00b0ee" d="M 86.417969 59.125 C 85.449219 58.851562 80.980469 57.925781 79.644531 62.65625 C 78.304688 67.386719 82.613281 68.640625 81.792969 71.566406 C 81.792969 71.566406 81.402344 72.574219 82.46875 72.859375 C 83.539062 73.148438 83.722656 72.117188 83.722656 72.117188 C 84.554688 69.199219 88.964844 70.417969 90.320312 65.691406 C 91.671875 60.96875 87.386719 59.402344 86.417969 59.125 Z M 87.101562 68.574219 L 86.925781 68.523438 C 86.375 68.359375 85.933594 67.925781 85.660156 67.289062 C 85.253906 67.5625 84.824219 67.710938 84.414062 67.707031 C 84.25 67.707031 84.085938 67.683594 83.929688 67.636719 C 83.378906 67.476562 82.9375 67.039062 82.664062 66.402344 C 82.257812 66.679688 81.828125 66.824219 81.417969 66.824219 C 81.253906 66.824219 81.089844 66.800781 80.933594 66.753906 L 80.757812 66.703125 L 80.980469 65.949219 L 81.15625 66.003906 C 81.238281 66.027344 81.328125 66.039062 81.414062 66.039062 C 81.808594 66.039062 82.179688 65.8125 82.433594 65.601562 C 82.328125 64.992188 82.355469 64.34375 82.503906 63.839844 C 82.683594 63.234375 83.03125 62.890625 83.457031 62.890625 C 83.535156 62.890625 83.617188 62.902344 83.691406 62.925781 C 84.214844 63.082031 84.40625 63.621094 84.195312 64.339844 C 84.046875 64.84375 83.710938 65.40625 83.296875 65.855469 C 83.460938 66.410156 83.765625 66.777344 84.148438 66.890625 C 84.234375 66.917969 84.324219 66.929688 84.414062 66.929688 C 84.808594 66.929688 85.175781 66.699219 85.429688 66.488281 C 85.253906 65.472656 85.445312 64.441406 85.894531 64.015625 C 86.046875 63.867188 86.246094 63.78125 86.457031 63.78125 C 86.535156 63.78125 86.613281 63.792969 86.6875 63.816406 C 86.96875 63.894531 87.183594 64.125 87.246094 64.414062 C 87.390625 65.015625 86.992188 65.984375 86.292969 66.742188 C 86.402344 67.097656 86.644531 67.632812 87.144531 67.777344 L 87.320312 67.832031 L 87.101562 68.578125 Z M 86.617188 64.558594 C 86.609375 64.496094 86.566406 64.441406 86.503906 64.425781 C 86.492188 64.421875 86.480469 64.421875 86.464844 64.421875 L 86.457031 64.421875 C 86.414062 64.421875 86.371094 64.441406 86.339844 64.476562 C 86.128906 64.675781 85.960938 65.3125 86.023438 66.050781 C 86.480469 65.464844 86.683594 64.839844 86.613281 64.558594 Z M 83.511719 63.542969 C 83.5 63.539062 83.488281 63.539062 83.476562 63.535156 L 83.46875 63.535156 C 83.320312 63.535156 83.191406 63.785156 83.125 64.019531 C 83.035156 64.328125 83 64.75 83.035156 65.164062 C 83.273438 64.859375 83.457031 64.519531 83.574219 64.148438 C 83.597656 64.058594 83.722656 63.605469 83.511719 63.539062 Z M 83.511719 63.542969 " fill-opacity="1" fill-rule="nonzero"/><path fill="#00b0ee" d="M 86.742188 57.652344 L 86.753906 53.472656 C 86.753906 52.785156 87.3125 52.230469 88 52.230469 C 88.6875 52.230469 89.242188 52.792969 89.242188 53.476562 C 89.242188 53.695312 89.183594 53.90625 89.074219 54.097656 L 86.984375 57.714844 C 86.945312 57.777344 86.867188 57.796875 86.808594 57.761719 C 86.765625 57.738281 86.742188 57.695312 86.742188 57.652344 Z M 86.742188 57.652344 " fill-opacity="1" fill-rule="nonzero"/><path fill="#00b0ee" d="M 91.390625 61.242188 L 94.355469 58.296875 C 94.84375 57.8125 95.632812 57.816406 96.117188 58.304688 C 96.601562 58.792969 96.597656 59.578125 96.109375 60.0625 C 95.957031 60.214844 95.765625 60.324219 95.554688 60.382812 L 91.515625 61.460938 C 91.449219 61.476562 91.378906 61.4375 91.359375 61.367188 C 91.347656 61.324219 91.359375 61.277344 91.390625 61.242188 Z M 91.390625 61.242188 " fill-opacity="1" fill-rule="nonzero"/><path fill="#00b0ee" d="M 91.601562 66.917969 L 95.78125 66.925781 C 96.46875 66.929688 97.027344 67.488281 97.023438 68.175781 C 97.023438 68.859375 96.464844 69.417969 95.777344 69.414062 C 95.558594 69.414062 95.34375 69.355469 95.15625 69.246094 L 91.535156 67.15625 C 91.472656 67.121094 91.453125 67.042969 91.488281 66.980469 C 91.511719 66.941406 91.554688 66.917969 91.601562 66.917969 Z M 91.601562 66.917969 " fill-opacity="1" fill-rule="nonzero"/><path fill="#00b0ee" d="M 80.984375 58.257812 L 80.039062 54.1875 C 79.882812 53.519531 79.210938 53.101562 78.542969 53.257812 C 77.875 53.414062 77.460938 54.082031 77.617188 54.753906 C 77.664062 54.960938 77.769531 55.15625 77.914062 55.3125 L 80.765625 58.375 C 80.8125 58.425781 80.894531 58.429688 80.949219 58.382812 C 80.984375 58.347656 80.996094 58.300781 80.988281 58.257812 Z M 80.984375 58.257812 " fill-opacity="1" fill-rule="nonzero"/><path fill="#00b0ee" d="M 77.789062 62.949219 L 74.234375 60.738281 C 73.652344 60.375 72.882812 60.554688 72.519531 61.136719 C 72.15625 61.71875 72.335938 62.484375 72.917969 62.847656 C 73.105469 62.964844 73.316406 63.03125 73.535156 63.035156 L 77.710938 63.1875 C 77.785156 63.191406 77.84375 63.132812 77.847656 63.0625 C 77.847656 63.015625 77.824219 62.972656 77.785156 62.949219 Z M 77.789062 62.949219 " fill-opacity="1" fill-rule="nonzero"/></svg>